<?xml version="1.0" encoding="utf-8"?>
<svg xmlns="http://www.w3.org/2000/svg" style="margin: auto; background: none; display: block; shape-rendering: auto;" width="110" height="60" preserveAspectRatio="xMidYMid">
<style type="text/css">
  text {
    text-anchor: middle; font-size: 58px; opacity: 0;
  }
</style>
<g style="transform-origin: 55px 30px; transform: scale(0.90625);">
<g transform="translate(55,30)">
  <g transform="translate(0,0)"><g class="path" style="transform: scale(0.91); transform-origin: -28.094906px -16.253967px; animation: 0.666667s linear -0.203077s infinite forwards breath-869d4e98-bee1-40be-af96-068626331c93;"><path d="M31.81-22.27L31.81-22.27L31.81-22.27Q31.74-22.08 31.58-21.76L31.58-21.76L31.58-21.76Q31.42-21.44 31.23-21.09L31.23-21.09L31.23-21.09Q31.04-20.74 30.85-20.51L30.85-20.51L30.85-20.51Q30.66-20.29 30.59-20.35L30.59-20.35L30.59-20.35Q30.59-20.35 30.66-20.67L30.66-20.67L30.66-20.67Q30.72-20.99 30.82-21.38L30.82-21.38L30.82-21.38Q30.91-21.76 31.01-22.11L31.01-22.11L31.01-22.11Q31.10-22.46 31.10-22.59L31.10-22.59L31.10-22.59Q32.06-27.71 31.10-31.42L31.10-31.42L31.10-31.42Q30.14-35.14 27.87-37.50L27.87-37.50L27.87-37.50Q25.60-39.87 22.30-41.02L22.30-41.02L22.30-41.02Q19.01-42.18 15.36-42.24L15.36-42.24L15.36-42.24Q12.74-42.24 10.21-41.82L10.21-41.82L10.21-41.82Q7.68-41.41 5.60-40.77L5.60-40.77L5.60-40.77Q3.52-40.13 2.08-39.36L2.08-39.36L2.08-39.36Q0.64-38.59 0.26-37.89L0.26-37.89L0.26-37.89Q-0.19-37.12 0-38.08L0-38.08L0-38.08Q0.51-39.74 2.72-41.15L2.72-41.15L2.72-41.15Q4.93-42.56 7.87-43.46L7.87-43.46L7.87-43.46Q10.82-44.35 14.05-44.64L14.05-44.64L14.05-44.64Q17.28-44.93 19.90-44.29L19.90-44.29L19.90-44.29Q21.63-43.90 23.36-43.20L23.36-43.20L23.36-43.20Q25.09-42.50 26.66-41.50L26.66-41.50L26.66-41.50Q28.22-40.51 29.54-39.14L29.54-39.14L29.54-39.14Q30.85-37.76 31.74-35.97L31.74-35.97L31.74-35.97Q33.47-32.51 33.44-28.83L33.44-28.83L33.44-28.83Q33.41-25.15 31.81-22.27" fill="#0055a5" stroke="none" stroke-width="none" transform="translate(-44.786956787109375,16.27982036884014)" style="fill: rgb(0, 85, 165);"></path></g><g class="path" style="transform: scale(0.91); transform-origin: -23.37458px -9.180193px; animation: 0.666667s linear -0.372308s infinite forwards breath-869d4e98-bee1-40be-af96-068626331c93;"><path d="M35.97-22.72L35.97-22.72L35.97-22.72Q34.75-19.14 32.74-16.26L32.74-16.26L32.74-16.26Q30.72-13.38 28.42-11.10L28.42-11.10L28.42-11.10Q26.11-8.83 23.68-7.17L23.68-7.17L23.68-7.17Q21.25-5.50 19.14-4.35L19.14-4.35L19.14-4.35Q18.50-4.03 18.05-3.84L18.05-3.84L18.05-3.84Q17.60-3.65 17.60-3.78L17.60-3.78L17.60-3.78Q17.47-3.84 17.95-4.19L17.95-4.19L17.95-4.19Q18.43-4.54 18.94-4.93L18.94-4.93L18.94-4.93Q22.53-7.81 25.89-11.01L25.89-11.01L25.89-11.01Q29.25-14.21 31.94-18.30L31.94-18.30L31.94-18.30Q33.28-20.42 33.98-22.94L33.98-22.94L33.98-22.94Q34.69-25.47 34.69-28.16L34.69-28.16L34.69-28.16Q34.69-30.85 33.95-33.47L33.95-33.47L33.95-33.47Q33.22-36.10 31.68-38.34L31.68-38.34L31.68-38.34Q29.63-41.28 26.72-43.01L26.72-43.01L26.72-43.01Q23.81-44.74 20.48-45.41L20.48-45.41L20.48-45.41Q17.15-46.08 13.63-45.82L13.63-45.82L13.63-45.82Q10.11-45.57 6.85-44.61L6.85-44.61L6.85-44.61Q6.34-44.48 6.24-44.42L6.24-44.42L6.24-44.42Q6.14-44.35 6.08-44.48L6.08-44.48L6.08-44.48Q6.02-44.61 6.27-44.74L6.27-44.74L6.27-44.74Q6.53-44.86 6.72-44.99L6.72-44.99L6.72-44.99Q8.13-45.76 10.37-46.40L10.37-46.40L10.37-46.40Q12.61-47.04 15.42-47.17L15.42-47.17L15.42-47.17Q18.24-47.30 21.44-46.69L21.44-46.69L21.44-46.69Q24.64-46.08 27.90-44.35L27.90-44.35L27.90-44.35Q31.42-42.43 33.38-39.49L33.38-39.49L33.38-39.49Q35.33-36.54 36.10-33.44L36.10-33.44L36.10-33.44Q36.86-30.34 36.74-27.42L36.74-27.42L36.74-27.42Q36.61-24.51 35.97-22.72" fill="#0055a5" stroke="none" stroke-width="none" transform="translate(-44.786956787109375,16.27982036884014)" style="fill: rgb(69, 174, 231);"></path></g><g class="path" style="transform: scale(0.91); transform-origin: -29.686198px -4.631615px; animation: 0.666667s linear -0.406154s infinite forwards breath-869d4e98-bee1-40be-af96-068626331c93;"><path d="M8.13-0.77L8.13-0.77L8.13-0.77Q7.81-1.28 7.33-2.40L7.33-2.40L7.33-2.40Q6.85-3.52 6.59-5.06L6.59-5.06L6.59-5.06Q6.46-5.82 6.43-6.78L6.43-6.78L6.43-6.78Q6.40-7.74 6.46-8.61L6.46-8.61L6.46-8.61Q6.53-9.47 6.66-10.05L6.66-10.05L6.66-10.05Q6.78-10.62 7.04-10.62L7.04-10.62L7.04-10.62Q7.10-10.62 7.20-10.27L7.20-10.27L7.20-10.27Q7.30-9.92 7.39-9.47L7.39-9.47L7.39-9.47Q7.49-9.02 7.52-8.61L7.52-8.61L7.52-8.61Q7.55-8.19 7.55-8L7.55-8L7.55-8Q7.68-6.34 7.97-4.67L7.97-4.67L7.97-4.67Q8.26-3.01 8.83-1.47L8.83-1.47L8.83-1.47Q11.07-4.22 13.95-7.04L13.95-7.04L13.95-7.04Q16.83-9.86 19.58-12.77L19.58-12.77L19.58-12.77Q22.34-15.68 24.61-18.75L24.61-18.75L24.61-18.75Q26.88-21.82 27.90-25.09L27.90-25.09L27.90-25.09Q28.61-27.33 28.19-29.76L28.19-29.76L28.19-29.76Q27.78-32.19 26.56-34.18L26.56-34.18L26.56-34.18Q25.34-36.10 23.10-37.38L23.10-37.38L23.10-37.38Q20.86-38.66 18.18-39.17L18.18-39.17L18.18-39.17Q17.09-39.36 16.03-39.49L16.03-39.49L16.03-39.49Q14.98-39.62 13.82-39.62L13.82-39.62L13.82-39.62Q14.02-38.66 14.05-37.54L14.05-37.54L14.05-37.54Q14.08-36.42 14.02-35.33L14.02-35.33L14.02-35.33Q13.95-34.24 13.82-33.25L13.82-33.25L13.82-33.25Q13.70-32.26 13.50-31.49L13.50-31.49L13.50-31.49Q12.61-28.03 11.39-24.54L11.39-24.54L11.39-24.54Q10.18-21.06 8.83-17.86L8.83-17.86L8.83-17.86Q8.70-17.66 8.48-17.25L8.48-17.25L8.48-17.25Q8.26-16.83 8.13-16.83L8.13-16.83L8.13-16.83Q8-16.83 8-17.34L8-17.34L8-17.34Q8-17.86 8.06-18.05L8.06-18.05L8.06-18.05Q8.13-18.82 8.32-19.94L8.32-19.94L8.32-19.94Q8.51-21.06 8.74-22.21L8.74-22.21L8.74-22.21Q8.96-23.36 9.22-24.48L9.22-24.48L9.22-24.48Q9.47-25.60 9.73-26.37L9.73-26.37L9.73-26.37Q9.86-26.75 10.21-28.22L10.21-28.22L10.21-28.22Q10.56-29.70 10.94-31.62L10.94-31.62L10.94-31.62Q11.33-33.54 11.68-35.68L11.68-35.68L11.68-35.68Q12.03-37.82 12.16-39.62L12.16-39.62L11.39-39.62L11.39-39.62Q11.26-37.12 10.69-34.50L10.69-34.50L10.69-34.50Q10.11-31.87 9.31-29.22L9.31-29.22L9.31-29.22Q8.51-26.56 7.65-23.87L7.65-23.87L7.65-23.87Q6.78-21.18 6.14-18.50L6.14-18.50L6.14-18.50Q6.02-17.92 5.79-16.51L5.79-16.51L5.79-16.51Q5.57-15.10 5.44-13.34L5.44-13.34L5.44-13.34Q5.31-11.58 5.31-9.63L5.31-9.63L5.31-9.63Q5.31-7.68 5.60-5.92L5.60-5.92L5.60-5.92Q5.89-4.16 6.46-2.75L6.46-2.75L6.46-2.75Q7.04-1.34 8.13-0.77zM29.38-23.23L29.38-23.23L29.38-23.23Q27.97-19.90 25.50-16.83L25.50-16.83L25.50-16.83Q23.04-13.76 20.16-10.91L20.16-10.91L20.16-10.91Q17.28-8.06 14.24-5.50L14.24-5.50L14.24-5.50Q11.20-2.94 8.70-0.64L8.70-0.64L8.70-0.64Q8.19-0.19 7.39-0.54L7.39-0.54L7.39-0.54Q6.59-0.90 6.21-1.41L6.21-1.41L6.21-1.41Q4.86-3.20 4.22-5.44L4.22-5.44L4.22-5.44Q3.58-7.68 3.46-10.08L3.46-10.08L3.46-10.08Q3.33-12.48 3.62-14.94L3.62-14.94L3.62-14.94Q3.90-17.41 4.48-19.71L4.48-19.71L4.48-19.71Q5.76-25.02 7.39-29.98L7.39-29.98L7.39-29.98Q9.02-34.94 9.79-39.42L9.79-39.42L9.79-39.42Q6.34-39.04 3.62-37.86L3.62-37.86L3.62-37.86Q0.90-36.67 0-35.01L0-35.01L0-35.01Q0-34.88-0.10-34.88L-0.10-34.88L-0.10-34.88Q-0.19-34.88-0.06-35.39L-0.06-35.39L-0.06-35.39Q0.45-37.18 2.43-38.50L2.43-38.50L2.43-38.50Q4.42-39.81 7.17-40.54L7.17-40.54L7.17-40.54Q9.92-41.28 13.09-41.41L13.09-41.41L13.09-41.41Q16.26-41.54 19.26-41.02L19.26-41.02L19.26-41.02Q22.53-40.45 24.93-38.56L24.93-38.56L24.93-38.56Q27.33-36.67 28.70-34.14L28.70-34.14L28.70-34.14Q30.08-31.62 30.30-28.74L30.30-28.74L30.30-28.74Q30.53-25.86 29.38-23.23zM15.62-37.76L15.62-37.76L15.62-37.76Q16.38-36.10 16.22-33.41L16.22-33.41L16.22-33.41Q16.06-30.72 15.49-27.81L15.49-27.81L15.49-27.81Q14.91-24.90 14.18-22.21L14.18-22.21L14.18-22.21Q13.44-19.52 13.06-17.86L13.06-17.86L13.06-17.86Q12.29-14.78 11.20-11.71L11.20-11.71L11.20-11.71Q10.11-8.64 9.41-6.34L9.41-6.34L9.41-6.34Q9.09-5.44 8.96-5.44L8.96-5.44L8.96-5.44Q8.77-5.44 8.77-5.79L8.77-5.79L8.77-5.79Q8.77-6.14 8.77-6.46L8.77-6.46L8.77-6.46Q8.96-11.20 10.14-15.81L10.14-15.81L10.14-15.81Q11.33-20.42 12.74-25.15L12.74-25.15L12.74-25.15Q13.57-28.03 14.34-31.17L14.34-31.17L14.34-31.17Q15.10-34.30 15.23-37.76L15.23-37.76L15.23-37.76Q15.23-38.21 15.36-38.27L15.36-38.27L15.36-38.27Q15.42-38.27 15.49-38.08L15.49-38.08L15.49-38.08Q15.55-37.89 15.62-37.76" fill="#0055a5" stroke="none" stroke-width="none" transform="translate(-44.786956787109375,16.27982036884014)" style="fill: rgb(0, 85, 165);"></path></g><g class="path" style="transform: scale(0.91); transform-origin: -28.960381px 11.165733px; animation: 0.666667s linear -0.135385s infinite forwards breath-869d4e98-bee1-40be-af96-068626331c93;"><path d="M23.23-11.20L23.23-11.20L23.23-11.20Q23.30-11.14 22.98-10.69L22.98-10.69L22.98-10.69Q22.66-10.24 22.18-9.70L22.18-9.70L22.18-9.70Q21.70-9.15 21.22-8.61L21.22-8.61L21.22-8.61Q20.74-8.06 20.54-7.87L20.54-7.87L20.54-7.87Q19.20-6.53 17.82-5.15L17.82-5.15L17.82-5.15Q16.45-3.78 14.98-2.82L14.98-2.82L9.22 0.83L9.22 0.83Q9.09 0.90 8.86 0.96L8.86 0.96L8.86 0.96Q8.64 1.02 8.51 0.96L8.51 0.96L8.51 0.96Q8.38 0.90 8.42 0.77L8.42 0.77L8.42 0.77Q8.45 0.64 8.51 0.51L8.51 0.51L8.51 0.51Q8.58 0.38 8.70 0.26L8.70 0.26L8.70 0.26Q9.79-0.51 11.17-1.66L11.17-1.66L11.17-1.66Q12.54-2.82 14.02-4.03L14.02-4.03L14.02-4.03Q15.10-4.86 16.61-6.14L16.61-6.14L16.61-6.14Q18.11-7.42 19.55-8.58L19.55-8.58L19.55-8.58Q20.99-9.73 22.05-10.53L22.05-10.53L22.05-10.53Q23.10-11.33 23.23-11.20" fill="#0055a5" stroke="none" stroke-width="none" transform="translate(-44.786956787109375,16.27982036884014)" style="fill: rgb(189, 160, 178);"></path></g><g class="path" style="transform: scale(0.91); transform-origin: 4.801626px 0.889819px; animation: 0.666667s linear -0.338462s infinite forwards breath-869d4e98-bee1-40be-af96-068626331c93;"><path d="M59.01-17.73L59.01-17.73L59.01-17.73Q59.20-19.46 59.07-21.38L59.07-21.38L59.07-21.38Q58.94-23.30 58.27-24.93L58.27-24.93L58.27-24.93Q57.60-26.56 56.22-27.65L56.22-27.65L56.22-27.65Q54.85-28.74 52.61-28.74L52.61-28.74L52.61-28.74Q49.60-28.74 47.36-27.10L47.36-27.10L47.36-27.10Q45.12-25.47 43.52-23.07L43.52-23.07L43.52-23.07Q41.92-20.67 41.02-17.95L41.02-17.95L41.02-17.95Q40.13-15.23 39.87-12.99L39.87-12.99L39.87-12.99Q39.49-9.92 39.78-7.68L39.78-7.68L39.78-7.68Q40.06-5.44 40.83-4L40.83-4L40.83-4Q41.60-2.56 42.78-1.86L42.78-1.86L42.78-1.86Q43.97-1.15 45.38-1.15L45.38-1.15L45.38-1.15Q47.36-1.09 49.57-2.27L49.57-2.27L49.57-2.27Q51.78-3.46 53.70-5.60L53.70-5.60L53.70-5.60Q55.62-7.74 57.06-10.85L57.06-10.85L57.06-10.85Q58.50-13.95 59.01-17.73zM38.40-13.31L38.40-13.31L38.40-13.31Q38.66-15.87 39.68-18.94L39.68-18.94L39.68-18.94Q40.70-22.02 42.53-24.64L42.53-24.64L42.53-24.64Q44.35-27.26 46.91-29.02L46.91-29.02L46.91-29.02Q49.47-30.78 52.86-30.78L52.86-30.78L52.86-30.78Q55.42-30.78 57.09-29.57L57.09-29.57L57.09-29.57Q58.75-28.35 59.65-26.46L59.65-26.46L59.65-26.46Q60.54-24.58 60.80-22.37L60.80-22.37L60.80-22.37Q61.06-20.16 60.80-18.18L60.80-18.18L60.80-18.18Q60.22-13.57 58.56-10.18L58.56-10.18L58.56-10.18Q56.90-6.78 54.66-4.51L54.66-4.51L54.66-4.51Q52.42-2.24 49.92-1.12L49.92-1.12L49.92-1.12Q47.42 0 45.12 0L45.12 0L45.12 0Q43.39 0 42.02-0.77L42.02-0.77L42.02-0.77Q40.64-1.54 39.71-3.17L39.71-3.17L39.71-3.17Q38.78-4.80 38.43-7.33L38.43-7.33L38.43-7.33Q38.08-9.86 38.40-13.31zM45.57-4.29L45.57-4.29L45.57-4.29Q45.25-4.29 44.93-4.51L44.93-4.51L44.93-4.51Q44.61-4.74 44.42-5.06L44.42-5.06L44.42-5.06Q44.22-5.38 44.16-5.70L44.16-5.70L44.16-5.70Q44.10-6.02 44.42-6.14L44.42-6.14L44.42-6.14Q44.61-6.21 44.93-5.70L44.93-5.70L44.93-5.70Q45.25-5.18 45.63-5.18L45.63-5.18L45.63-5.18Q46.27-5.18 47.14-6.02L47.14-6.02L47.14-6.02Q48-6.85 48.80-7.97L48.80-7.97L48.80-7.97Q49.60-9.09 50.21-10.18L50.21-10.18L50.21-10.18Q50.82-11.26 51.07-11.78L51.07-11.78L51.07-11.78Q51.33-12.29 51.58-13.09L51.58-13.09L51.58-13.09Q51.84-13.89 52.06-14.72L52.06-14.72L52.06-14.72Q52.29-15.55 52.45-16.35L52.45-16.35L52.45-16.35Q52.61-17.15 52.67-17.73L52.67-17.73L52.67-17.73Q52.99-20.61 52.54-22.18L52.54-22.18L52.54-22.18Q52.10-23.74 51.07-23.74L51.07-23.74L51.07-23.74Q50.30-23.74 49.47-23.26L49.47-23.26L49.47-23.26Q48.64-22.78 47.90-22.02L47.90-22.02L47.90-22.02Q47.17-21.25 46.59-20.32L46.59-20.32L46.59-20.32Q46.02-19.39 45.76-18.43L45.76-18.43L45.76-18.43Q45.44-17.34 45.31-17.34L45.31-17.34L45.31-17.34Q45.12-17.34 45.12-18.43L45.12-18.43L45.12-18.43Q45.31-19.65 45.95-20.83L45.95-20.83L45.95-20.83Q46.59-22.02 47.55-22.94L47.55-22.94L47.55-22.94Q48.51-23.87 49.66-24.48L49.66-24.48L49.66-24.48Q50.82-25.09 52.03-25.09L52.03-25.09L52.03-25.09Q53.25-25.09 53.86-24.22L53.86-24.22L53.86-24.22Q54.46-23.36 54.72-22.11L54.72-22.11L54.72-22.11Q54.98-20.86 54.94-19.55L54.94-19.55L54.94-19.55Q54.91-18.24 54.78-17.47L54.78-17.47L54.78-17.47Q54.53-15.74 53.98-14.11L53.98-14.11L53.98-14.11Q53.44-12.48 52.67-10.82L52.67-10.82L52.67-10.82Q52.29-10.05 51.52-8.93L51.52-8.93L51.52-8.93Q50.75-7.81 49.76-6.78L49.76-6.78L49.76-6.78Q48.77-5.76 47.65-5.02L47.65-5.02L47.65-5.02Q46.53-4.29 45.57-4.29zM47.62-3.07L47.62-3.07L47.62-3.07Q47.68-2.69 47.01-2.43L47.01-2.43L47.01-2.43Q46.34-2.18 45.63-2.18L45.63-2.18L45.63-2.18Q43.65-2.24 42.59-3.46L42.59-3.46L42.59-3.46Q41.54-4.67 41.12-6.34L41.12-6.34L41.12-6.34Q40.70-8 40.74-9.79L40.74-9.79L40.74-9.79Q40.77-11.58 40.90-12.80L40.90-12.80L40.90-12.80Q41.15-14.91 41.92-17.54L41.92-17.54L41.92-17.54Q42.69-20.16 44.10-22.46L44.10-22.46L44.10-22.46Q45.50-24.77 47.55-26.34L47.55-26.34L47.55-26.34Q49.60-27.90 52.42-27.90L52.42-27.90L52.42-27.90Q54.27-27.90 55.39-26.94L55.39-26.94L55.39-26.94Q56.51-25.98 57.06-24.58L57.06-24.58L57.06-24.58Q57.60-23.17 57.70-21.54L57.70-21.54L57.70-21.54Q57.79-19.90 57.60-18.56L57.60-18.56L57.60-18.56Q57.47-17.09 57.15-15.87L57.15-15.87L57.15-15.87Q56.83-14.66 56.26-13.18L56.26-13.18L56.26-13.18Q56.06-12.74 55.74-12.16L55.74-12.16L55.74-12.16Q55.42-11.58 55.04-11.65L55.04-11.65L55.04-11.65Q54.85-11.71 54.94-12.16L54.94-12.16L54.94-12.16Q55.04-12.61 55.20-13.28L55.20-13.28L55.20-13.28Q55.36-13.95 55.55-14.69L55.55-14.69L55.55-14.69Q55.74-15.42 55.81-16.06L55.81-16.06L55.81-16.06Q55.94-17.15 55.97-18.78L55.97-18.78L55.97-18.78Q56-20.42 55.71-21.95L55.71-21.95L55.71-21.95Q55.42-23.49 54.66-24.58L54.66-24.58L54.66-24.58Q53.89-25.66 52.35-25.66L52.35-25.66L52.35-25.66Q50.11-25.66 48.22-24.22L48.22-24.22L48.22-24.22Q46.34-22.78 44.93-20.70L44.93-20.70L44.93-20.70Q43.52-18.62 42.66-16.35L42.66-16.35L42.66-16.35Q41.79-14.08 41.60-12.35L41.60-12.35L41.60-12.35Q41.47-11.33 41.54-9.79L41.54-9.79L41.54-9.79Q41.60-8.26 42.02-6.75L42.02-6.75L42.02-6.75Q42.43-5.25 43.39-4.16L43.39-4.16L43.39-4.16Q44.35-3.07 46.02-3.01L46.02-3.01L46.02-3.01Q46.53-2.94 47.01-3.10L47.01-3.10L47.01-3.10Q47.49-3.26 47.62-3.07" fill="#0055a5" stroke="none" stroke-width="none" transform="translate(-44.786956787109375,16.27982036884014)" style="fill: rgb(189, 160, 178);"></path></g><g class="path" style="transform: scale(0.91); transform-origin: 29.913067px 1.866371px; animation: 0.666667s linear infinite forwards breath-869d4e98-bee1-40be-af96-068626331c93;"><path d="M70.46-13.44L70.46-13.44L70.46-13.44Q70.72-15.04 71.33-16.67L71.33-16.67L71.33-16.67Q71.94-18.30 72.77-19.68L72.77-19.68L72.77-19.68Q73.60-21.06 74.62-21.98L74.62-21.98L74.62-21.98Q75.65-22.91 76.80-23.23L76.80-23.23L76.80-23.23Q78.27-23.55 79.01-23.36L79.01-23.36L79.01-23.36Q79.74-23.17 79.87-22.78L79.87-22.78L79.87-22.78Q80.06-22.21 79.87-21.63L79.87-21.63L79.87-21.63Q79.68-21.06 79.33-20.61L79.33-20.61L79.33-20.61Q78.98-20.16 78.56-19.81L78.56-19.81L78.56-19.81Q78.14-19.46 77.89-19.39L77.89-19.39L77.89-19.39Q77.57-19.26 77.66-19.07L77.66-19.07L77.66-19.07Q77.76-18.88 78.27-19.01L78.27-19.01L78.27-19.01Q78.85-19.07 79.42-19.46L79.42-19.46L79.42-19.46Q80-19.84 80.48-20.42L80.48-20.42L80.48-20.42Q80.96-20.99 81.22-21.66L81.22-21.66L81.22-21.66Q81.47-22.34 81.41-23.04L81.41-23.04L81.41-23.04Q81.28-23.74 80.74-24.26L80.74-24.26L80.74-24.26Q80.19-24.77 79.42-25.02L79.42-25.02L79.42-25.02Q78.66-25.28 77.70-25.28L77.70-25.28L77.70-25.28Q76.74-25.28 75.90-24.96L75.90-24.96L75.90-24.96Q74.24-24.32 72.99-23.07L72.99-23.07L72.99-23.07Q71.74-21.82 70.82-20.19L70.82-20.19L70.82-20.19Q69.89-18.56 69.31-16.67L69.31-16.67L69.31-16.67Q68.74-14.78 68.35-12.86L68.35-12.86L68.35-12.86Q67.84-10.50 68.03-8.22L68.03-8.22L68.03-8.22Q68.22-5.95 69.50-4.67L69.50-4.67L69.50-4.67Q70.14-4.03 71.17-3.78L71.17-3.78L71.17-3.78Q72.19-3.52 73.34-3.55L73.34-3.55L73.34-3.55Q74.50-3.58 75.68-3.97L75.68-3.97L75.68-3.97Q76.86-4.35 77.89-4.99L77.89-4.99L77.89-4.99Q78.14-5.12 78.30-5.25L78.30-5.25L78.30-5.25Q78.46-5.38 78.34-5.44L78.34-5.44L78.34-5.44Q78.27-5.50 77.82-5.38L77.82-5.38L77.82-5.38Q74.69-4.61 72.96-4.74L72.96-4.74L72.96-4.74Q71.23-4.86 70.50-5.89L70.50-5.89L70.50-5.89Q69.76-6.91 69.86-8.80L69.86-8.80L69.86-8.80Q69.95-10.69 70.46-13.44" fill="#0055a5" stroke="none" stroke-width="none" transform="translate(-44.786956787109375,16.27982036884014)" style="fill: rgb(0, 85, 165);"></path></g><g class="path" style="transform: scale(0.91); transform-origin: 28.708796px 1.155392px; animation: 0.666667s linear -0.304615s infinite forwards breath-869d4e98-bee1-40be-af96-068626331c93;"><path d="M71.23-0.26L71.23-0.26L71.23-0.26Q69.18-0.38 67.33-1.57L67.33-1.57L67.33-1.57Q65.47-2.75 64.77-4.54L64.77-4.54L64.77-4.54Q64.06-6.40 63.87-8.10L63.87-8.10L63.87-8.10Q63.68-9.79 63.81-11.39L63.81-11.39L63.81-11.39Q64.06-14.72 65.12-18.08L65.12-18.08L65.12-18.08Q66.18-21.44 68.42-24.13L68.42-24.13L68.42-24.13Q69.82-25.79 71.23-26.91L71.23-26.91L71.23-26.91Q72.64-28.03 74.94-28.67L74.94-28.67L74.94-28.67Q76.10-28.99 77.44-29.06L77.44-29.06L77.44-29.06Q78.78-29.12 80.10-28.77L80.10-28.77L80.10-28.77Q81.41-28.42 82.56-27.58L82.56-27.58L82.56-27.58Q83.71-26.75 84.61-25.34L84.61-25.34L84.61-25.34Q84.80-24.70 84.99-24.70L84.99-24.70L84.99-24.70Q85.18-24.90 84.99-25.41L84.99-25.41L84.99-25.41Q84.61-27.46 82.91-28.67L82.91-28.67L82.91-28.67Q81.22-29.89 78.94-30.21L78.94-30.21L78.94-30.21Q76.67-30.53 74.24-29.98L74.24-29.98L74.24-29.98Q71.81-29.44 69.95-27.90L69.95-27.90L69.95-27.90Q67.46-25.92 65.76-23.33L65.76-23.33L65.76-23.33Q64.06-20.74 63.10-17.86L63.10-17.86L63.10-17.86Q62.14-14.98 61.95-11.90L61.95-11.90L61.95-11.90Q61.76-8.83 62.40-5.89L62.40-5.89L62.40-5.89Q62.78-3.97 63.71-2.78L63.71-2.78L63.71-2.78Q64.64-1.60 65.86-0.93L65.86-0.93L65.86-0.93Q67.07-0.26 68.48-0.06L68.48-0.06L68.48-0.06Q69.89 0.13 71.30 0.06L71.30 0.06L71.30 0.06Q71.68 0.06 71.78 0L71.78 0L71.78 0Q71.87-0.06 71.87-0.13L71.87-0.13L71.87-0.13Q71.87-0.26 71.23-0.26" fill="#0055a5" stroke="none" stroke-width="none" transform="translate(-44.786956787109375,16.27982036884014)" style="fill: rgb(206, 100, 166);"></path></g><g class="path" style="transform: scale(0.91); transform-origin: 30.202686px -4.90018px; animation: 0.666667s linear -0.236923s infinite forwards breath-869d4e98-bee1-40be-af96-068626331c93;"><path d="M66.24-15.68L66.24-15.68L66.24-15.68Q66.24-15.62 66.21-15.36L66.21-15.36L66.21-15.36Q66.18-15.10 66.14-14.85L66.14-14.85L66.14-14.85Q66.11-14.59 66.11-14.37L66.11-14.37L66.11-14.37Q66.11-14.14 66.24-14.14L66.24-14.14L66.24-14.14Q66.37-14.14 66.66-14.78L66.66-14.78L66.66-14.78Q66.94-15.42 66.94-15.49L66.94-15.49L66.94-15.49Q68.61-19.33 70.91-22.27L70.91-22.27L70.91-22.27Q71.10-22.46 71.68-23.14L71.68-23.14L71.68-23.14Q72.26-23.81 73.22-24.51L73.22-24.51L73.22-24.51Q74.18-25.22 75.52-25.73L75.52-25.73L75.52-25.73Q76.86-26.24 78.53-26.05L78.53-26.05L78.53-26.05Q80.26-25.86 81.34-24.77L81.34-24.77L81.34-24.77Q82.43-23.68 82.11-22.21L82.11-22.21L82.11-22.21Q81.86-20.80 81.12-19.84L81.12-19.84L81.12-19.84Q80.38-18.88 79.68-18.56L79.68-18.56L79.68-18.56Q79.17-18.37 79.39-18.30L79.39-18.30L79.39-18.30Q79.62-18.24 79.74-18.24L79.74-18.24L79.74-18.24Q80.51-18.30 81.38-18.85L81.38-18.85L81.38-18.85Q82.24-19.39 82.88-20.26L82.88-20.26L82.88-20.26Q83.52-21.12 83.78-22.21L83.78-22.21L83.78-22.21Q84.03-23.30 83.58-24.58L83.58-24.58L83.58-24.58Q83.07-25.92 82.11-26.72L82.11-26.72L82.11-26.72Q81.15-27.52 80-27.87L80-27.87L80-27.87Q78.85-28.22 77.66-28.22L77.66-28.22L77.66-28.22Q76.48-28.22 75.65-28.03L75.65-28.03L75.65-28.03Q73.22-27.39 71.55-26.18L71.55-26.18L71.55-26.18Q69.89-24.96 68.83-23.33L68.83-23.33L68.83-23.33Q67.78-21.70 67.20-19.74L67.20-19.74L67.20-19.74Q66.62-17.79 66.24-15.68" fill="#0055a5" stroke="none" stroke-width="none" transform="translate(-44.786956787109375,16.27982036884014)" style="fill: rgb(85, 173, 21);"></path></g><g class="path" style="transform: scale(0.91); transform-origin: 28.284653px 13.203014px; animation: 0.666667s linear -0.169231s infinite forwards breath-869d4e98-bee1-40be-af96-068626331c93;"><path d="M79.17-4.10L79.17-4.10L79.17-4.10Q79.42-4.48 79.39-4.61L79.39-4.61L79.39-4.61Q79.36-4.74 79.23-4.70L79.23-4.70L79.23-4.70Q79.10-4.67 78.88-4.51L78.88-4.51L78.88-4.51Q78.66-4.35 78.53-4.29L78.53-4.29L78.53-4.29Q77.25-3.39 75.68-2.85L75.68-2.85L75.68-2.85Q74.11-2.30 72.19-2.30L72.19-2.30L72.19-2.30Q71.23-2.30 69.92-2.98L69.92-2.98L69.92-2.98Q68.61-3.65 67.90-4.35L67.90-4.35L67.90-4.35Q67.65-4.67 67.36-4.96L67.36-4.96L67.36-4.96Q67.07-5.25 66.88-5.18L66.88-5.18L66.88-5.18Q66.62-4.93 66.88-4.48L66.88-4.48L66.88-4.48Q67.84-2.24 69.31-1.60L69.31-1.60L69.31-1.60Q70.78-0.96 72.45-0.96L72.45-0.96L72.45-0.96Q73.41-0.96 74.40-1.22L74.40-1.22L74.40-1.22Q75.39-1.47 76.32-1.89L76.32-1.89L76.32-1.89Q77.25-2.30 77.98-2.88L77.98-2.88L77.98-2.88Q78.72-3.46 79.17-4.10" fill="#0055a5" stroke="none" stroke-width="none" transform="translate(-44.786956787109375,16.27982036884014)" style="fill: rgb(69, 174, 231);"></path></g><g class="path" style="transform: scale(0.91); transform-origin: 50.554062px -2.544008px; animation: 0.666667s linear -0.270769s infinite forwards breath-869d4e98-bee1-40be-af96-068626331c93;"><path d="M90.43-23.62L90.43-23.62L90.43-23.62Q90.50-24.19 90.82-24.99L90.82-24.99L90.82-24.99Q91.14-25.79 91.68-26.53L91.68-26.53L91.68-26.53Q92.22-27.26 92.99-27.87L92.99-27.87L92.99-27.87Q93.76-28.48 94.72-28.67L94.72-28.67L94.72-28.67Q96.77-29.06 98.11-28.42L98.11-28.42L98.11-28.42Q99.46-27.78 100.16-26.94L100.16-26.94L100.16-26.94Q100.42-26.56 100.35-26.50L100.35-26.50L100.35-26.50Q100.22-26.37 99.90-26.56L99.90-26.56L99.90-26.56Q99.52-26.82 98.66-27.01L98.66-27.01L98.66-27.01Q97.79-27.20 96.80-27.10L96.80-27.10L96.80-27.10Q95.81-27.01 94.88-26.50L94.88-26.50L94.88-26.50Q93.95-25.98 93.38-24.83L93.38-24.83L93.38-24.83Q92.86-23.74 92.67-22.59L92.67-22.59L92.67-22.59Q92.48-21.44 92.45-20.45L92.45-20.45L92.45-20.45Q92.42-19.46 92.48-18.75L92.48-18.75L92.48-18.75Q92.54-18.05 92.54-17.79L92.54-17.79L92.54-17.79Q92.67-17.09 92.77-16.03L92.77-16.03L92.77-16.03Q92.86-14.98 92.86-13.89L92.86-13.89L92.86-13.89Q92.86-12.80 92.80-11.74L92.80-11.74L92.80-11.74Q92.74-10.69 92.54-9.92L92.54-9.92L92.54-9.92Q92.48-9.73 92.38-9.28L92.38-9.28L92.38-9.28Q92.29-8.83 92.16-8.83L92.16-8.83L92.16-8.83Q91.84-8.83 91.84-9.28L91.84-9.28L91.84-9.28Q91.84-9.73 91.84-9.92L91.84-9.92L91.84-9.92Q91.71-11.52 91.39-13.15L91.39-13.15L91.39-13.15Q91.07-14.78 90.78-16.51L90.78-16.51L90.78-16.51Q90.50-18.24 90.37-20L90.37-20L90.37-20Q90.24-21.76 90.43-23.62" fill="#0055a5" stroke="none" stroke-width="none" transform="translate(-44.786956787109375,16.27982036884014)" style="fill: rgb(216, 240, 91);"></path></g><g class="path" style="transform: scale(0.91); transform-origin: 45.228043px -0.777138px; animation: 0.666667s linear -0.067692s infinite forwards breath-869d4e98-bee1-40be-af96-068626331c93;"><path d="M88.19-10.94L88.19-10.94L88.19-10.94Q88.26-12.22 87.97-14.56L87.97-14.56L87.97-14.56Q87.68-16.90 87.74-19.97L87.74-19.97L87.74-19.97Q87.81-21.57 88.06-23.26L88.06-23.26L88.06-23.26Q88.32-24.96 89.28-26.62L89.28-26.62L89.28-26.62Q90.30-28.42 91.87-29.28L91.87-29.28L91.87-29.28Q93.44-30.14 94.59-30.08L94.59-30.08L94.59-30.08Q94.78-30.08 94.98-30.08L94.98-30.08L94.98-30.08Q95.17-30.08 95.17-30.02L95.17-30.02L95.17-30.02Q95.17-29.89 95.10-29.92L95.10-29.92L95.10-29.92Q95.04-29.95 94.66-29.82L94.66-29.82L94.66-29.82Q93.50-29.50 92.61-28.77L92.61-28.77L92.61-28.77Q91.71-28.03 91.07-27.07L91.07-27.07L91.07-27.07Q90.43-26.11 90.05-25.09L90.05-25.09L90.05-25.09Q89.66-24.06 89.60-23.23L89.60-23.23L89.60-23.23Q89.22-19.71 89.66-17.09L89.66-17.09L89.66-17.09Q89.98-14.98 90.18-12.70L90.18-12.70L90.18-12.70Q90.37-10.43 90.02-8.54L90.02-8.54L90.02-8.54Q89.66-6.66 88.67-5.41L88.67-5.41L88.67-5.41Q87.68-4.16 85.63-4.03L85.63-4.03L85.63-4.03Q85.44-4.03 85.15-4.06L85.15-4.06L85.15-4.06Q84.86-4.10 84.86-4.22L84.86-4.22L84.86-4.22Q84.86-4.35 85.44-4.67L85.44-4.67L85.44-4.67Q87.10-5.44 87.62-6.91L87.62-6.91L87.62-6.91Q88.13-8.38 88.19-10.94" fill="#0055a5" stroke="none" stroke-width="none" transform="translate(-44.786956787109375,16.27982036884014)" style="fill: rgb(216, 240, 91);"></path></g><g class="path" style="transform: scale(0.91); transform-origin: 46.323669px 3.19505px; animation: 0.666667s linear -0.101538s infinite forwards breath-869d4e98-bee1-40be-af96-068626331c93;"><path d="M81.41-3.39L81.41-3.39L81.41-3.39Q82.30-1.98 84.26-1.31L84.26-1.31L84.26-1.31Q86.21-0.64 88.90-1.41L88.90-1.41L88.90-1.41Q90.24-1.79 91.26-2.75L91.26-2.75L91.26-2.75Q92.29-3.71 92.96-4.90L92.96-4.90L92.96-4.90Q93.63-6.08 93.98-7.36L93.98-7.36L93.98-7.36Q94.34-8.64 94.40-9.73L94.40-9.73L94.40-9.73Q94.46-11.52 94.30-13.25L94.30-13.25L94.30-13.25Q94.14-14.98 93.92-16.61L93.92-16.61L93.92-16.61Q93.70-18.24 93.54-19.78L93.54-19.78L93.54-19.78Q93.38-21.31 93.50-22.78L93.50-22.78L93.50-22.78Q93.63-24.38 94.40-25.22L94.40-25.22L94.40-25.22Q95.17-26.05 96.29-26.27L96.29-26.27L96.29-26.27Q97.41-26.50 98.62-26.11L98.62-26.11L98.62-26.11Q99.84-25.73 100.86-24.90L100.86-24.90L100.86-24.90Q101.12-24.77 101.06-24.58L101.06-24.58L101.06-24.58Q101.06-24.45 100.93-24.51L100.93-24.51L100.93-24.51Q100.80-24.58 100.67-24.64L100.67-24.64L100.67-24.64Q98.30-25.41 96.99-25.09L96.99-25.09L96.99-25.09Q95.68-24.77 95.55-22.78L95.55-22.78L95.55-22.78Q95.42-20.48 95.90-17.38L95.90-17.38L95.90-17.38Q96.38-14.27 96.26-10.50L96.26-10.50L96.26-10.50Q96.32-9.22 95.97-7.55L95.97-7.55L95.97-7.55Q95.62-5.89 94.82-4.32L94.82-4.32L94.82-4.32Q94.02-2.75 92.70-1.54L92.70-1.54L92.70-1.54Q91.39-0.32 89.60 0L89.60 0L89.60 0Q86.21 0.51 84.19-0.38L84.19-0.38L84.19-0.38Q82.18-1.28 81.28-3.14L81.28-3.14L81.28-3.14Q81.15-3.52 81.15-3.58L81.15-3.58L81.22-3.58L81.22-3.58Q81.22-3.58 81.41-3.39" fill="#0055a5" stroke="none" stroke-width="none" transform="translate(-44.786956787109375,16.27982036884014)" style="fill: rgb(206, 100, 166);"></path></g><g class="path" style="transform: scale(0.91); transform-origin: 40.569546px 12.708709px; animation: 0.666667s linear -0.033846s infinite forwards breath-869d4e98-bee1-40be-af96-068626331c93;"><path d="M84.22-3.39L84.22-3.39L84.22-3.39Q85.44-3.07 87.17-3.14L87.17-3.14L87.17-3.14Q87.74-3.20 88.58-3.46L88.58-3.46L88.58-3.46Q89.41-3.71 89.47-3.58L89.47-3.58L89.47-3.58Q89.66-3.33 89.09-2.94L89.09-2.94L89.09-2.94Q88.51-2.56 87.62-2.27L87.62-2.27L87.62-2.27Q86.72-1.98 85.76-1.89L85.76-1.89L85.76-1.89Q84.80-1.79 84.16-2.05L84.16-2.05L84.16-2.05Q82.94-2.56 82.40-3.17L82.40-3.17L82.40-3.17Q81.86-3.78 81.41-4.67L81.41-4.67L81.28-4.93L81.28-4.93Q81.15-5.18 81.22-5.25L81.22-5.25L81.22-5.25Q81.28-5.31 81.41-5.25L81.41-5.25L81.41-5.25Q81.47-5.18 81.47-5.12L81.47-5.12L81.47-5.12Q82.24-4.42 82.78-4.06L82.78-4.06L82.78-4.06Q83.33-3.71 84.22-3.39" fill="#0055a5" stroke="none" stroke-width="none" transform="translate(-44.786956787109375,16.27982036884014)" style="fill: rgb(85, 173, 21);"></path></g></g>
</g>
</g>
<style id="breath-869d4e98-bee1-40be-af96-068626331c93" data-anikit="">@keyframes breath-869d4e98-bee1-40be-af96-068626331c93
{
  0% {
    animation-timing-function: cubic-bezier(0.9647,0.2413,-0.0705,0.7911);
    transform: scale(0.9099999999999999);
  }
  51% {
    animation-timing-function: cubic-bezier(0.9226,0.2631,-0.0308,0.7628);
    transform: scale(1.02994);
  }
  100% {
    transform: scale(0.9099999999999999);
  }
}</style></svg>