<?xml version="1.0" encoding="utf-8"?>
<svg xmlns="http://www.w3.org/2000/svg" style="margin: auto; background: none; display: block; shape-rendering: auto; animation-play-state: running; animation-delay: 0s;" width="200" height="70" preserveAspectRatio="xMidYMid">
<style type="text/css" style="animation-play-state: running; animation-delay: 0s;">
  text {
    text-anchor: middle; font-size: 62px; opacity: 0;
  }
</style>
<g style="transform-origin: 100px 35px; transform: scale(1.068966); animation-play-state: running; animation-delay: 0s;">
<g transform="translate(100,35)" style="animation-play-state: running; animation-delay: 0s;">
  <g transform="translate(0,0)" style="animation-play-state: running; animation-delay: 0s;"><g class="path" style="transform: matrix(0.01, 0, 0, 0.01, 0, 0); transform-origin: -58.25001px -5.306492px; animation: 1s linear 0.141429s forwards bounce-in-db708eb3-b5ce-42dd-80ae-79e8669927cb;"><path d="M15.60-29.17L15.60-29.17L15.60-29.17Q16.12-26.10 16.24-22.45L16.24-22.45L16.24-22.45Q16.36-18.79 16.47-15.72L16.47-15.72L16.47-15.72Q16.47-15.54 16.44-15.08L16.44-15.08L16.44-15.08Q16.41-14.62 16.18-14.56L16.18-14.56L16.18-14.56Q16.07-14.56 15.89-15.05L15.89-15.05L15.89-15.05Q15.72-15.54 15.66-15.72L15.66-15.72L15.66-15.72Q15.43-16.41 15.23-17.34L15.23-17.34L15.23-17.34Q15.02-18.27 14.85-19.23L14.85-19.23L14.85-19.23Q14.67-20.18 14.56-21.14L14.56-21.14L14.56-21.14Q14.44-22.10 14.38-22.91L14.38-22.91L14.38-22.91Q14.38-23.08 14.30-23.90L14.30-23.90L14.30-23.90Q14.21-24.71 14.04-25.78L14.04-25.78L14.04-25.78Q13.86-26.85 13.63-28.10L13.63-28.10L13.63-28.10Q13.40-29.35 13.11-30.51L13.11-30.51L13.11-30.51Q13.11-28.07 13.02-25.72L13.02-25.72L13.02-25.72Q12.93-23.37 13.11-21.00L13.11-21.00L13.11-21.00Q13.22-19.49 13.46-18.07L13.46-18.07L13.46-18.07Q13.69-16.65 13.98-15.20L13.98-15.20L13.98-15.20Q14.38-13.17 15.20-11.14L15.20-11.14L15.20-11.14Q16.01-9.11 17.14-7.31L17.14-7.31L17.14-7.31Q18.27-5.51 19.75-4.03L19.75-4.03L19.75-4.03Q21.23-2.55 22.97-1.68L22.97-1.68L22.97-1.68Q23.26-1.57 23.23-1.42L23.23-1.42L23.23-1.42Q23.20-1.28 22.97-1.33L22.97-1.33L22.97-1.33Q20.59-1.86 18.79-3.28L18.79-3.28L18.79-3.28Q16.99-4.70 15.63-6.67L15.63-6.67L15.63-6.67Q14.27-8.64 13.40-10.96L13.40-10.96L13.40-10.96Q12.53-13.28 12.06-15.60L12.06-15.60L12.06-15.60Q11.89-16.59 11.72-17.57L11.72-17.57L11.72-17.57Q11.54-18.56 11.43-19.55L11.43-19.55L11.43-19.55Q10.56-16.76 9.54-14.09L9.54-14.09L9.54-14.09Q8.53-11.43 7.60-8.99L7.60-8.99L7.60-8.99Q6.67-6.55 5.97-4.29L5.97-4.29L5.97-4.29Q5.28-2.03 4.93 0L4.93 0L4.93 0Q4.87 0.06 4.87 0.12L4.87 0.12L4.87 0.12Q4.76 0.23 4.76 0.23L4.76 0.23L4.76 0.23Q4.58 0.23 4.58 0L4.58 0L4.58 0Q4.18-2.67 4.79-5.48L4.79-5.48L4.79-5.48Q5.39-8.29 6.47-11.25L6.47-11.25L6.47-11.25Q7.54-14.21 8.76-17.31L8.76-17.31L8.76-17.31Q9.98-20.42 10.79-23.61L10.79-23.61L10.79-23.61Q11.31-25.58 11.54-27.81L11.54-27.81L11.54-27.81Q11.77-30.04 11.66-32.22L11.66-32.22L11.66-32.22Q11.54-34.39 10.93-36.42L10.93-36.42L10.93-36.42Q10.32-38.45 9.22-40.14L9.22-40.14L9.22-40.14Q8.93-40.48 9.05-40.60L9.05-40.60L9.05-40.60Q9.16-40.72 9.40-40.60L9.40-40.60L9.40-40.60Q9.63-40.48 9.80-40.31L9.80-40.31L9.80-40.31Q10.96-39.15 11.86-38.08L11.86-38.08L11.86-38.08Q12.76-37.00 13.46-35.73L13.46-35.73L13.46-35.73Q14.15-34.45 14.67-32.89L14.67-32.89L14.67-32.89Q15.20-31.32 15.60-29.17" fill="#0055a5" stroke="none" stroke-width="none" transform="translate(-72.07720947265625,14.908509586879184)" style="fill: rgb(0, 85, 165); animation-play-state: running; animation-delay: 0s;"></path></g><g class="path" style="transform: matrix(0.01, 0, 0, 0.01, 0, 0); transform-origin: -50.340922px -6.514284px; animation: 1s linear 0.33s forwards bounce-in-db708eb3-b5ce-42dd-80ae-79e8669927cb;"><path d="M22.62-15.66L22.62-15.66L22.62-15.66Q22.97-17.34 23.26-18.62L23.26-18.62L23.26-18.62Q23.55-19.89 23.93-21.05L23.93-21.05L23.93-21.05Q24.30-22.21 24.80-23.40L24.80-23.40L24.80-23.40Q25.29-24.59 26.04-26.04L26.04-26.04L26.04-26.04Q26.16-26.22 26.42-26.65L26.42-26.65L26.42-26.65Q26.68-27.09 26.85-27.03L26.85-27.03L26.85-27.03Q26.97-27.03 26.91-26.51L26.91-26.51L26.91-26.51Q26.85-25.98 26.80-25.81L26.80-25.81L26.80-25.81Q26.62-25.06 26.36-24.07L26.36-24.07L26.36-24.07Q26.10-23.08 25.81-22.01L25.81-22.01L25.81-22.01Q25.52-20.94 25.23-19.89L25.23-19.89L25.23-19.89Q24.94-18.85 24.77-18.10L24.77-18.10L24.77-18.10Q24.53-17.11 24.27-15.69L24.27-15.69L24.27-15.69Q24.01-14.27 23.75-12.53L23.75-12.53L23.75-12.53Q23.49-10.79 23.35-8.82L23.35-8.82L23.35-8.82Q23.20-6.84 23.26-4.76L23.26-4.76L23.26-4.76Q22.74-5.05 22.19-5.48L22.19-5.48L22.19-5.48Q21.63-5.92 21.11-6.73L21.11-6.73L21.11-6.73Q19.89-8.47 19.23-10.41L19.23-10.41L19.23-10.41Q18.56-12.35 18.15-14.44L18.15-14.44L18.15-14.44Q17.75-16.53 17.57-18.71L17.57-18.71L17.57-18.71Q17.40-20.88 17.17-22.97L17.17-22.97L17.17-22.97Q16.88-25.69 16.65-28.48L16.65-28.48L16.65-28.48Q16.41-31.26 15.43-34.22L15.43-34.22L15.43-34.22Q15.31-34.51 15.28-34.54L15.28-34.54L15.28-34.54Q15.25-34.57 15.37-34.63L15.37-34.63L15.37-34.63Q15.54-34.63 15.72-34.34L15.72-34.34L15.72-34.34Q16.47-33.58 17.02-32.16L17.02-32.16L17.02-32.16Q17.57-30.74 18.01-29L18.01-29L18.01-29Q18.44-27.26 18.76-25.32L18.76-25.32L18.76-25.32Q19.08-23.37 19.31-21.55L19.31-21.55L19.31-21.55Q19.55-19.72 19.75-18.18L19.75-18.18L19.75-18.18Q19.95-16.65 20.13-15.66L20.13-15.66L20.13-15.66Q20.53-19.02 21.00-21.66L21.00-21.66L21.00-21.66Q21.46-24.30 21.98-25.93L21.98-25.93L21.98-25.93Q22.45-27.38 23.08-28.94L23.08-28.94L23.08-28.94Q23.72-30.51 24.48-32.05L24.48-32.05L24.48-32.05Q25.23-33.58 26.01-34.97L26.01-34.97L26.01-34.97Q26.80-36.37 27.49-37.41L27.49-37.41L27.49-37.41Q27.67-37.70 27.84-37.93L27.84-37.93L27.84-37.93Q28.01-38.16 28.13-38.05L28.13-38.05L28.13-38.05Q28.25-37.93 28.16-37.67L28.16-37.67L28.16-37.67Q28.07-37.41 27.96-37.12L27.96-37.12L27.96-37.12Q27.20-34.86 26.54-33.06L26.54-33.06L26.54-33.06Q25.87-31.26 25.20-29.52L25.20-29.52L25.20-29.52Q24.53-27.78 23.95-25.90L23.95-25.90L23.95-25.90Q23.37-24.01 22.79-21.69L22.79-21.69L22.79-21.69Q22.45-20.18 21.98-18.50L21.98-18.50L21.98-18.50Q21.52-16.82 21.26-15.05L21.26-15.05L21.26-15.05Q21.00-13.28 21.08-11.46L21.08-11.46L21.08-11.46Q21.17-9.63 21.92-7.89L21.92-7.89L21.92-7.89Q21.87-8.87 21.92-10.12L21.92-10.12L21.92-10.12Q21.98-11.37 22.13-12.50L22.13-12.50L22.13-12.50Q22.27-13.63 22.42-14.50L22.42-14.50L22.42-14.50Q22.56-15.37 22.62-15.66" fill="#0055a5" stroke="none" stroke-width="none" transform="translate(-72.07720947265625,14.908509586879184)" style="fill: rgb(189, 160, 178); animation-play-state: running; animation-delay: 0s;"></path></g><g class="path" style="transform: matrix(0.01, 0, 0, 0.01, 0, 0); transform-origin: -47.031033px -6.496492px; animation: 1s linear 0.589286s forwards bounce-in-db708eb3-b5ce-42dd-80ae-79e8669927cb;"><path d="M21.46-4.99L21.46-4.99L21.46-4.99Q22.10-4.29 22.79-3.74L22.79-3.74L22.79-3.74Q23.49-3.19 24.30-2.73L24.30-2.73L24.30-2.73Q23.84-5.34 24.13-8.15L24.13-8.15L24.13-8.15Q24.42-10.96 25.11-13.86L25.11-13.86L25.11-13.86Q25.81-16.76 26.74-19.66L26.74-19.66L26.74-19.66Q27.67-22.56 28.54-25.35L28.54-25.35L28.54-25.35Q29.81-29.41 30.60-33.79L30.60-33.79L30.60-33.79Q31.38-38.16 31.49-42.51L31.49-42.51L31.49-42.51Q31.49-42.98 31.55-42.98L31.55-42.98L31.55-42.98Q31.73-42.98 31.73-42.69L31.73-42.69L31.73-42.69Q32.25-40.19 32.31-37.84L32.31-37.84L32.31-37.84Q32.36-35.50 32.07-33.20L32.07-33.20L32.07-33.20Q31.78-30.91 31.26-28.65L31.26-28.65L31.26-28.65Q30.74-26.39 30.04-24.07L30.04-24.07L30.04-24.07Q29.17-20.94 28.25-17.78L28.25-17.78L28.25-17.78Q27.32-14.62 26.59-11.57L26.59-11.57L26.59-11.57Q25.87-8.53 25.52-5.60L25.52-5.60L25.52-5.60Q25.17-2.67 25.40-0.06L25.40-0.06L25.40-0.06Q25.40 0.17 25.29 0.17L25.29 0.17L25.29 0.17Q25.17 0.17 25.14 0.09L25.14 0.09L25.14 0.09Q25.11 0 25.06-0.06L25.06-0.06L25.06-0.06Q24.82-0.64 24.80-0.70L24.80-0.70L24.80-0.70Q24.77-0.75 24.59-1.33L24.59-1.33L24.59-1.33Q24.48-1.80 24.24-1.97L24.24-1.97L24.24-1.97Q24.01-2.15 23.90-2.20L23.90-2.20L23.90-2.20Q22.91-2.55 22.21-2.84L22.21-2.84L22.21-2.84Q21.52-3.13 20.36-4.29L20.36-4.29L20.36-4.29Q19.89-4.76 19.37-5.57L19.37-5.57L19.37-5.57Q18.85-6.38 18.44-7.16L18.44-7.16L18.44-7.16Q18.04-7.95 17.86-8.55L17.86-8.55L17.86-8.55Q17.69-9.16 17.86-9.22L17.86-9.22L17.86-9.22Q17.92-9.22 18.15-9.02L18.15-9.02L18.15-9.02Q18.39-8.82 18.62-8.55L18.62-8.55L18.62-8.55Q18.85-8.29 19.05-8.00L19.05-8.00L19.05-8.00Q19.26-7.71 19.31-7.66L19.31-7.66L19.31-7.66Q20.36-6.09 21.46-4.99" fill="#0055a5" stroke="none" stroke-width="none" transform="translate(-72.07720947265625,14.908509586879184)" style="fill: rgb(69, 174, 231); animation-play-state: running; animation-delay: 0s;"></path></g><g class="path" style="transform: matrix(0.01, 0, 0, 0.01, 0, 0); transform-origin: -67.57508px -5.947492px; animation: 1s linear 0.353571s forwards bounce-in-db708eb3-b5ce-42dd-80ae-79e8669927cb;"><path d="M4.47-24.30L4.47-24.30L4.47-24.30Q5.16-26.97 6.12-29.75L6.12-29.75L6.12-29.75Q7.08-32.54 7.71-34.74L7.71-34.74L7.71-34.74Q7.83-35.03 7.92-35.26L7.92-35.26L7.92-35.26Q8.00-35.50 8.12-35.44L8.12-35.44L8.12-35.44Q8.24-35.44 8.24-35.15L8.24-35.15L8.24-35.15Q8.24-34.86 8.24-34.57L8.24-34.57L8.24-34.57Q8.29-30.33 7.13-26.10L7.13-26.10L7.13-26.10Q5.97-21.87 4.52-17.75L4.52-17.75L4.52-17.75Q3.60-15.14 2.67-12.44L2.67-12.44L2.67-12.44Q1.74-9.74 1.28-6.61L1.28-6.61L1.28-6.61Q1.22-6.32 1.22-6.29L1.22-6.29L1.22-6.29Q1.22-6.26 1.10-6.26L1.10-6.26L1.10-6.26Q1.04-6.26 0.93-6.67L0.93-6.67L0.93-6.67Q0.58-8.24 0.96-10.61L0.96-10.61L0.96-10.61Q1.33-12.99 1.97-15.57L1.97-15.57L1.97-15.57Q2.61-18.15 3.36-20.50L3.36-20.50L3.36-20.50Q4.12-22.85 4.47-24.30" fill="#0055a5" stroke="none" stroke-width="none" transform="translate(-72.07720947265625,14.908509586879184)" style="fill: rgb(206, 100, 166); animation-play-state: running; animation-delay: 0s;"></path></g><g class="path" style="transform: matrix(0.01, 0, 0, 0.01, 0, 0); transform-origin: -66.320868px 1.973509px; animation: 1s linear 0.282857s forwards bounce-in-db708eb3-b5ce-42dd-80ae-79e8669927cb;"><path d="M3.36-11.95L3.36-11.95L3.36-11.95Q4.41-14.91 5.71-18.13L5.71-18.13L5.71-18.13Q7.02-21.34 8.35-24.24L8.35-24.24L8.35-24.24Q8.41-24.36 8.64-24.77L8.64-24.77L8.64-24.77Q8.87-25.17 8.99-25.17L8.99-25.17L8.99-25.17Q9.11-25.11 9.13-24.65L9.13-24.65L9.13-24.65Q9.16-24.19 9.05-24.01L9.05-24.01L9.05-24.01Q8.93-23.32 8.73-22.30L8.73-22.30L8.73-22.30Q8.53-21.29 8.24-20.21L8.24-20.21L8.24-20.21Q7.95-19.14 7.66-18.15L7.66-18.15L7.66-18.15Q7.37-17.17 7.13-16.47L7.13-16.47L7.13-16.47Q6.96-15.95 6.35-13.92L6.35-13.92L6.35-13.92Q5.74-11.89 5.10-9.43L5.10-9.43L5.10-9.43Q4.47-6.96 3.97-4.64L3.97-4.64L3.97-4.64Q3.48-2.32 3.60-1.22L3.60-1.22L3.60-1.22Q3.60-0.70 3.42-0.70L3.42-0.70L3.42-0.70Q3.36-0.70 3.28-0.90L3.28-0.90L3.28-0.90Q3.19-1.10 3.07-1.22L3.07-1.22L3.07-1.22Q2.61-2.20 2.47-3.60L2.47-3.60L2.47-3.60Q2.32-4.99 2.41-6.50L2.41-6.50L2.41-6.50Q2.49-8.00 2.76-9.43L2.76-9.43L2.76-9.43Q3.02-10.85 3.36-11.95" fill="#0055a5" stroke="none" stroke-width="none" transform="translate(-72.07720947265625,14.908509586879184)" style="fill: rgb(0, 85, 165); animation-play-state: running; animation-delay: 0s;"></path></g><g class="path" style="transform: matrix(0.01, 0, 0, 0.01, 0, 0); transform-origin: -42.474709px -23.368807px; animation: 1s linear 0.542143s forwards bounce-in-db708eb3-b5ce-42dd-80ae-79e8669927cb;"><path d="M29.23-38.80L29.23-38.80L29.23-38.80Q29.46-39.96 29.58-41.04L29.58-41.04L29.58-41.04Q29.70-42.11 29.81-43.33L29.81-43.33L29.81-43.33Q29.81-43.44 29.87-43.59L29.87-43.59L29.87-43.59Q29.93-43.73 30.04-43.73L30.04-43.73L30.04-43.73Q30.10-43.73 30.28-43.44L30.28-43.44L30.28-43.44Q30.33-43.33 30.33-43.21L30.33-43.21L30.33-43.21Q30.51-42.63 30.60-42.17L30.60-42.17L30.60-42.17Q30.68-41.70 30.71-41.18L30.71-41.18L30.71-41.18Q30.74-40.66 30.71-39.99L30.71-39.99L30.71-39.99Q30.68-39.32 30.51-38.45L30.51-38.45L30.51-38.45Q30.39-37.76 30.13-36.77L30.13-36.77L30.13-36.77Q29.87-35.79 29.58-34.89L29.58-34.89L29.58-34.89Q29.29-33.99 29.03-33.38L29.03-33.38L29.03-33.38Q28.77-32.77 28.59-32.83L28.59-32.83L28.59-32.83Q28.48-32.83 28.48-33.15L28.48-33.15L28.48-33.15Q28.48-33.47 28.54-33.84L28.54-33.84L28.54-33.84Q28.59-34.22 28.65-34.63L28.65-34.63L28.65-34.63Q28.71-35.03 28.71-35.26L28.71-35.26L29.23-38.80" fill="#0055a5" stroke="none" stroke-width="none" transform="translate(-72.07720947265625,14.908509586879184)" style="fill: rgb(85, 173, 21); animation-play-state: running; animation-delay: 0s;"></path></g><g class="path" style="transform: matrix(0.01, 0, 0, 0.01, 0, 0); transform-origin: -63.20278px -20.733924px; animation: 1s linear 0.495s forwards bounce-in-db708eb3-b5ce-42dd-80ae-79e8669927cb;"><path d="M8.87-36.37L8.87-36.37L8.87-36.37Q8.64-37.35 8.32-38.28L8.32-38.28L8.32-38.28Q8.00-39.21 7.48-40.02L7.48-40.02L7.48-40.02Q7.25-40.37 7.37-40.43L7.37-40.43L7.37-40.43Q7.48-40.43 7.71-40.31L7.71-40.31L7.95-40.19L7.95-40.19Q8.70-39.50 9.25-38.80L9.25-38.80L9.25-38.80Q9.80-38.11 10.15-36.48L10.15-36.48L10.15-36.48Q10.32-35.84 10.38-34.89L10.38-34.89L10.38-34.89Q10.44-33.93 10.41-33.00L10.41-33.00L10.41-33.00Q10.38-32.07 10.27-31.44L10.27-31.44L10.27-31.44Q10.15-30.80 9.92-30.86L9.92-30.86L9.92-30.86Q9.80-30.86 9.74-31.15L9.74-31.15L9.74-31.15Q9.69-31.44 9.63-31.81L9.63-31.81L9.63-31.81Q9.57-32.19 9.51-32.54L9.51-32.54L9.51-32.54Q9.45-32.89 9.45-33.00L9.45-33.00L9.45-33.00Q9.34-33.93 9.22-34.74L9.22-34.74L9.22-34.74Q9.11-35.55 8.87-36.37" fill="#0055a5" stroke="none" stroke-width="none" transform="translate(-72.07720947265625,14.908509586879184)" style="fill: rgb(206, 100, 166); animation-play-state: running; animation-delay: 0s;"></path></g><g class="path" style="transform: matrix(0.01, 0, 0, 0.01, 0, 0); transform-origin: -28.418619px -3.599696px; animation: 1s linear 0.235714s forwards bounce-in-db708eb3-b5ce-42dd-80ae-79e8669927cb;"><path d="M49.30-23.66L49.30-23.66L49.30-23.66Q49.76-23.08 50.03-22.21L50.03-22.21L50.03-22.21Q50.29-21.34 50.23-20.33L50.23-20.33L50.23-20.33Q50.17-19.31 49.76-18.21L49.76-18.21L49.76-18.21Q49.36-17.11 48.49-16.07L48.49-16.07L48.49-16.07Q46.81-14.09 44.81-13.02L44.81-13.02L44.81-13.02Q42.80-11.95 41.18-11.95L41.18-11.95L41.18-11.95Q40.19-11.95 41.18-12.30L41.18-12.30L41.18-12.30Q41.70-12.47 42.43-12.85L42.43-12.85L42.43-12.85Q43.15-13.22 43.96-13.78L43.96-13.78L43.96-13.78Q44.78-14.33 45.62-15.08L45.62-15.08L45.62-15.08Q46.46-15.83 47.15-16.82L47.15-16.82L47.15-16.82Q48.31-18.44 48.52-19.98L48.52-19.98L48.52-19.98Q48.72-21.52 47.91-22.33L47.91-22.33L47.91-22.33Q47.21-23.03 46.28-23.11L46.28-23.11L46.28-23.11Q45.36-23.20 43.50-22.10L43.50-22.10L43.50-22.10Q41.82-21.11 40.48-19.66L40.48-19.66L40.48-19.66Q39.15-18.21 37.99-16.59L37.99-16.59L37.99-16.59Q37.35-15.78 37.15-15.78L37.15-15.78L37.15-15.78Q36.95-15.78 37.29-16.82L37.29-16.82L37.29-16.82Q37.99-18.85 39.24-20.59L39.24-20.59L39.24-20.59Q40.48-22.33 42.22-23.55L42.22-23.55L42.22-23.55Q43.50-24.42 44.57-24.77L44.57-24.77L44.57-24.77Q45.65-25.11 46.55-25.06L46.55-25.06L46.55-25.06Q47.44-25.00 48.14-24.62L48.14-24.62L48.14-24.62Q48.84-24.24 49.30-23.66" fill="#0055a5" stroke="none" stroke-width="none" transform="translate(-72.07720947265625,14.908509586879184)" style="fill: rgb(216, 240, 91); animation-play-state: running; animation-delay: 0s;"></path></g><g class="path" style="transform: matrix(0.01, 0, 0, 0.01, 0, 0); transform-origin: -29.714394px 1.309024px; animation: 1s linear 0.636429s forwards bounce-in-db708eb3-b5ce-42dd-80ae-79e8669927cb;"><path d="M52.43-19.60L52.43-19.60L52.43-19.60Q52.20-18.21 51.71-17.26L51.71-17.26L51.71-17.26Q51.21-16.30 50.61-15.63L50.61-15.63L50.61-15.63Q50.00-14.96 49.39-14.56L49.39-14.56L49.39-14.56Q48.78-14.15 48.31-13.80L48.31-13.80L48.31-13.80Q48.08-13.63 47.97-13.75L47.97-13.75L47.97-13.75Q47.85-13.86 48.14-14.15L48.14-14.15L48.14-14.15Q49.18-15.02 50.26-16.50L50.26-16.50L50.26-16.50Q51.33-17.98 51.39-19.78L51.39-19.78L51.39-19.78Q51.39-22.85 49.88-24.48L49.88-24.48L49.88-24.48Q48.37-26.10 46.11-25.90L46.11-25.90L46.11-25.90Q43.85-25.69 41.41-24.13L41.41-24.13L41.41-24.13Q39.85-23.14 38.66-21.84L38.66-21.84L38.66-21.84Q37.47-20.53 36.60-19.05L36.60-19.05L36.60-19.05Q35.73-17.57 35.18-16.01L35.18-16.01L35.18-16.01Q34.63-14.44 34.39-12.88L34.39-12.88L34.39-12.88Q34.16-11.37 33.96-9.63L33.96-9.63L33.96-9.63Q33.76-7.89 33.96-6.21L33.96-6.21L33.96-6.21Q34.16-4.52 35.03-2.99L35.03-2.99L35.03-2.99Q35.90-1.45 37.76-0.35L37.76-0.35L37.76-0.35Q38.05-0.17 38.37-0.12L38.37-0.12L38.37-0.12Q38.69-0.06 38.69 0L38.69 0L38.69 0Q38.69 0.12 38.40 0.15L38.40 0.15L38.40 0.15Q38.11 0.17 37.76 0.06L37.76 0.06L37.76 0.06Q36.31-0.23 35.29-1.13L35.29-1.13L35.29-1.13Q34.28-2.03 33.64-3.19L33.64-3.19L33.64-3.19Q33.00-4.35 32.65-5.63L32.65-5.63L32.65-5.63Q32.31-6.90 32.25-7.95L32.25-7.95L32.25-7.95Q31.90-12.53 33.52-16.99L33.52-16.99L33.52-16.99Q33.87-17.92 34.42-19.08L34.42-19.08L34.42-19.08Q34.97-20.24 35.79-21.43L35.79-21.43L35.79-21.43Q36.60-22.62 37.70-23.75L37.70-23.75L37.70-23.75Q38.80-24.88 40.19-25.75L40.19-25.75L40.19-25.75Q41.53-26.56 42.98-26.97L42.98-26.97L42.98-26.97Q44.43-27.38 45.88-27.35L45.88-27.35L45.88-27.35Q47.33-27.32 48.60-26.83L48.60-26.83L48.60-26.83Q49.88-26.33 50.87-25.35L50.87-25.35L50.87-25.35Q51.74-24.42 52.23-22.97L52.23-22.97L52.23-22.97Q52.72-21.52 52.43-19.60" fill="#0055a5" stroke="none" stroke-width="none" transform="translate(-72.07720947265625,14.908509586879184)" style="fill: rgb(206, 100, 166); animation-play-state: running; animation-delay: 0s;"></path></g><g class="path" style="transform: matrix(0.01, 0, 0, 0.01, 0, 0); transform-origin: -29.484785px 2.76325px; animation: 1s linear 0.377143s forwards bounce-in-db708eb3-b5ce-42dd-80ae-79e8669927cb;"><path d="M47.15-21.69L47.15-21.69L47.15-21.69Q47.85-20.88 47.33-19.17L47.33-19.17L47.33-19.17Q46.81-17.46 44.89-15.72L44.89-15.72L44.89-15.72Q43.85-14.73 42.86-14.12L42.86-14.12L42.86-14.12Q41.88-13.51 40.37-13.05L40.37-13.05L40.37-13.05Q39.73-10.85 39.56-8.70L39.56-8.70L39.56-8.70Q39.38-6.55 39.67-5.22L39.67-5.22L39.67-5.22Q39.73-4.70 40.05-4.21L40.05-4.21L40.05-4.21Q40.37-3.71 40.98-3.45L40.98-3.45L40.98-3.45Q41.59-3.19 42.57-3.25L42.57-3.25L42.57-3.25Q43.56-3.31 45.01-3.89L45.01-3.89L45.01-3.89Q45.41-4.06 45.50-3.97L45.50-3.97L45.50-3.97Q45.59-3.89 45.12-3.60L45.12-3.60L45.12-3.60Q44.08-2.78 42.92-2.47L42.92-2.47L42.92-2.47Q41.76-2.15 40.75-2.26L40.75-2.26L40.75-2.26Q39.73-2.38 39.01-2.96L39.01-2.96L39.01-2.96Q38.28-3.54 38.05-4.52L38.05-4.52L38.05-4.52Q37.58-6.55 37.64-8.76L37.64-8.76L37.64-8.76Q37.70-10.96 38.31-13.11L38.31-13.11L38.31-13.11Q38.92-15.25 40.05-17.14L40.05-17.14L40.05-17.14Q41.18-19.02 42.86-20.36L42.86-20.36L42.86-20.36Q45.99-22.85 47.15-21.69zM45.76-20.13L45.76-20.13L45.76-20.13Q45.53-20.59 44.08-19.37L44.08-19.37L44.08-19.37Q42.75-18.33 41.96-16.96L41.96-16.96L41.96-16.96Q41.18-15.60 40.60-13.98L40.60-13.98L40.60-13.98Q41.70-14.50 42.63-15.17L42.63-15.17L42.63-15.17Q43.56-15.83 44.37-16.47L44.37-16.47L44.37-16.47Q45.24-17.23 45.65-18.44L45.65-18.44L45.65-18.44Q46.05-19.66 45.76-20.13" fill="#0055a5" stroke="none" stroke-width="none" transform="translate(-72.07720947265625,14.908509586879184)" style="fill: rgb(216, 240, 91); animation-play-state: running; animation-delay: 0s;"></path></g><g class="path" style="transform: matrix(0.01, 0, 0, 0.01, 0, 0); transform-origin: -30.712265px 12.829561px; animation: 1s linear 0.259286s forwards bounce-in-db708eb3-b5ce-42dd-80ae-79e8669927cb;"><path d="M46.57-3.19L46.57-3.19L46.57-3.19Q46.17-2.61 45.56-2.06L45.56-2.06L45.56-2.06Q44.95-1.51 44.17-1.07L44.17-1.07L44.17-1.07Q43.38-0.64 42.54-0.35L42.54-0.35L42.54-0.35Q41.70-0.06 40.83-0.06L40.83-0.06L40.83-0.06Q39.32-0.06 38.02-0.73L38.02-0.73L38.02-0.73Q36.71-1.39 36.02-3.42L36.02-3.42L36.02-3.42Q35.90-3.65 35.90-3.86L35.90-3.86L35.90-3.86Q35.90-4.06 36.02-4.06L36.02-4.06L36.02-4.06Q36.25-4.18 36.48-3.92L36.48-3.92L36.48-3.92Q36.71-3.65 36.95-3.36L36.95-3.36L36.95-3.36Q37.58-2.61 38.60-2.03L38.60-2.03L38.60-2.03Q39.61-1.45 40.54-1.45L40.54-1.45L40.54-1.45Q42.28-1.45 43.56-1.97L43.56-1.97L43.56-1.97Q44.83-2.49 45.99-3.36L45.99-3.36L45.99-3.36Q46.28-3.54 46.66-3.71L46.66-3.71L46.66-3.71Q47.04-3.89 46.57-3.19" fill="#0055a5" stroke="none" stroke-width="none" transform="translate(-72.07720947265625,14.908509586879184)" style="fill: rgb(85, 173, 21); animation-play-state: running; animation-delay: 0s;"></path></g><g class="path" style="transform: matrix(0.01, 0, 0, 0.01, 0, 0); transform-origin: -2.589294px -7.68149px; animation: 1s linear forwards bounce-in-db708eb3-b5ce-42dd-80ae-79e8669927cb;"><path d="M74.18-27.09L74.18-27.09L74.18-27.09Q74.41-26.16 74.27-25.23L74.27-25.23L74.27-25.23Q74.12-24.30 73.81-23.49L73.81-23.49L73.81-23.49Q73.49-22.68 72.99-22.07L72.99-22.07L72.99-22.07Q72.50-21.46 72.04-21.11L72.04-21.11L72.04-21.11Q70.64-20.13 68.90-19.29L68.90-19.29L68.90-19.29Q67.16-18.44 65.48-17.81L65.48-17.81L65.48-17.81Q65.37-17.75 65.08-17.66L65.08-17.66L65.08-17.66Q64.79-17.57 64.67-17.75L64.67-17.75L64.67-17.75Q64.61-17.81 64.76-18.04L64.76-18.04L64.76-18.04Q64.90-18.27 64.96-18.33L64.96-18.33L64.96-18.33Q65.54-19.02 66.53-19.84L66.53-19.84L66.53-19.84Q67.51-20.65 68.27-21.11L68.27-21.11L68.27-21.11Q68.50-21.29 69.40-21.98L69.40-21.98L69.40-21.98Q70.30-22.68 71.25-23.64L71.25-23.64L71.25-23.64Q72.21-24.59 73.02-25.58L73.02-25.58L73.02-25.58Q73.83-26.56 73.89-27.26L73.89-27.26L73.89-27.26Q73.89-27.38 73.92-27.41L73.92-27.41L73.92-27.41Q73.95-27.43 73.95-27.49L73.95-27.49L73.95-27.49Q73.95-27.55 74.01-27.55L74.01-27.55L74.01-27.55Q74.12-27.49 74.15-27.35L74.15-27.35L74.15-27.35Q74.18-27.20 74.18-27.09" fill="#0055a5" stroke="none" stroke-width="none" transform="translate(-72.07720947265625,14.908509586879184)" style="fill: rgb(0, 85, 165); animation-play-state: running; animation-delay: 0s;"></path></g><g class="path" style="transform: matrix(0.01, 0, 0, 0.01, 0, 0); transform-origin: -11.480879px -15.352106px; animation: 1s linear 0.188571s forwards bounce-in-db708eb3-b5ce-42dd-80ae-79e8669927cb;"><path d="M63.28-31.78L63.28-31.78L63.28-31.78Q62.47-28.25 61.13-24.62L61.13-24.62L61.13-24.62Q59.80-21.00 58.29-17.86L58.29-17.86L58.29-17.86Q58.17-17.57 57.97-17.08L57.97-17.08L57.97-17.08Q57.77-16.59 57.59-16.59L57.59-16.59L57.59-16.59Q57.48-16.70 57.51-17.20L57.51-17.20L57.51-17.20Q57.54-17.69 57.59-17.86L57.59-17.86L57.59-17.86Q57.77-18.73 58.06-20.07L58.06-20.07L58.06-20.07Q58.35-21.40 58.73-22.91L58.73-22.91L58.73-22.91Q59.10-24.42 59.48-25.87L59.48-25.87L59.48-25.87Q59.86-27.32 60.20-28.42L60.20-28.42L60.20-28.42Q61.36-32.31 61.71-36.11L61.71-36.11L61.71-36.11Q62.06-39.90 61.42-43.38L61.42-43.38L61.42-43.38Q61.36-43.62 61.39-43.73L61.39-43.73L61.39-43.73Q61.42-43.85 61.42-43.91L61.42-43.91L61.42-43.91Q61.71-44.02 61.94-43.56L61.94-43.56L61.94-43.56Q62.64-42.63 63.05-41.15L63.05-41.15L63.05-41.15Q63.45-39.67 63.60-38.02L63.60-38.02L63.60-38.02Q63.74-36.37 63.66-34.71L63.66-34.71L63.66-34.71Q63.57-33.06 63.28-31.78" fill="#0055a5" stroke="none" stroke-width="none" transform="translate(-72.07720947265625,14.908509586879184)" style="fill: rgb(189, 160, 178); animation-play-state: running; animation-delay: 0s;"></path></g><g class="path" style="transform: matrix(0.01, 0, 0, 0.01, 0, 0); transform-origin: -15.064947px -7.621349px; animation: 1s linear 0.047143s forwards bounce-in-db708eb3-b5ce-42dd-80ae-79e8669927cb;"><path d="M59.91-44.83L59.91-44.83L59.91-44.83Q61.07-41.99 60.96-38.77L60.96-38.77L60.96-38.77Q60.84-35.55 60.03-32.13L60.03-32.13L60.03-32.13Q59.22-28.71 58.03-25.20L58.03-25.20L58.03-25.20Q56.84-21.69 55.85-18.27L55.85-18.27L55.85-18.27Q55.22-16.12 54.84-13.72L54.84-13.72L54.84-13.72Q54.46-11.31 54.46-8.90L54.46-8.90L54.46-8.90Q54.46-6.50 54.93-4.23L54.93-4.23L54.93-4.23Q55.39-1.97 56.49-0.06L56.49-0.06L56.49-0.06Q56.67 0.23 56.46 0.17L56.46 0.17L56.46 0.17Q56.26 0.12 56.14 0L56.14 0L56.14 0Q54.69-1.80 53.97-4.15L53.97-4.15L53.97-4.15Q53.24-6.50 53.10-9.11L53.10-9.11L53.10-9.11Q52.95-11.72 53.30-14.44L53.30-14.44L53.30-14.44Q53.65-17.17 54.35-19.60L54.35-19.60L54.35-19.60Q55.39-23.03 56.46-26.39L56.46-26.39L56.46-26.39Q57.54-29.75 58.35-32.94L58.35-32.94L58.35-32.94Q59.16-36.13 59.54-39.12L59.54-39.12L59.54-39.12Q59.91-42.11 59.51-44.83L59.51-44.83L59.51-44.83Q59.51-44.95 59.48-45.09L59.48-45.09L59.48-45.09Q59.45-45.24 59.57-45.24L59.57-45.24L59.57-45.24Q59.68-45.24 59.77-45.09L59.77-45.09L59.77-45.09Q59.86-44.95 59.91-44.83" fill="#0055a5" stroke="none" stroke-width="none" transform="translate(-72.07720947265625,14.908509586879184)" style="fill: rgb(189, 160, 178); animation-play-state: running; animation-delay: 0s;"></path></g><g class="path" style="transform: matrix(0.01, 0, 0, 0.01, 0, 0); transform-origin: -2.127815px 10.326038px; animation: 1s linear 0.400714s forwards bounce-in-db708eb3-b5ce-42dd-80ae-79e8669927cb;"><path d="M75.28-1.45L75.28-1.45L75.28-1.45Q75.75-1.33 75.63-1.16L75.63-1.16L75.63-1.16Q75.52-0.99 75.34-0.93L75.34-0.93L75.34-0.93Q73.54-0.46 71.86-0.75L71.86-0.75L71.86-0.75Q70.18-1.04 69.08-1.86L69.08-1.86L69.08-1.86Q67.63-2.90 66.56-4.58L66.56-4.58L66.56-4.58Q65.48-6.26 64.50-7.77L64.50-7.77L64.50-7.77Q64.44-7.89 64.32-8.09L64.32-8.09L64.32-8.09Q64.21-8.29 64.26-8.41L64.26-8.41L64.26-8.41Q64.38-8.58 64.58-8.50L64.58-8.50L64.58-8.50Q64.79-8.41 64.84-8.35L64.84-8.35L64.84-8.35Q65.60-8.00 66.67-7.25L66.67-7.25L66.67-7.25Q67.74-6.50 68.27-5.86L68.27-5.86L68.27-5.86Q68.73-5.34 69.54-4.61L69.54-4.61L69.54-4.61Q70.35-3.89 71.31-3.25L71.31-3.25L71.31-3.25Q72.27-2.61 73.31-2.09L73.31-2.09L73.31-2.09Q74.36-1.57 75.28-1.45" fill="#0055a5" stroke="none" stroke-width="none" transform="translate(-72.07720947265625,14.908509586879184)" style="fill: rgb(85, 173, 21); animation-play-state: running; animation-delay: 0s;"></path></g><g class="path" style="transform: matrix(0.01, 0, 0, 0.01, 0, 0); transform-origin: -5.284565px -5.509249px; animation: 1s linear 0.165s forwards bounce-in-db708eb3-b5ce-42dd-80ae-79e8669927cb;"><path d="M77.14-2.73L77.14-2.73L77.14-2.73Q77.43-2.67 77.29-2.55L77.29-2.55L77.29-2.55Q77.14-2.44 76.91-2.44L76.91-2.44L76.91-2.44Q75.05-2.09 73.60-2.81L73.60-2.81L73.60-2.81Q72.15-3.54 70.91-4.73L70.91-4.73L70.91-4.73Q69.66-5.92 68.47-7.31L68.47-7.31L68.47-7.31Q67.28-8.70 65.95-9.80L65.95-9.80L65.95-9.80Q64.26-11.14 61.80-11.72L61.80-11.72L61.80-11.72Q59.33-12.30 56.49-11.19L56.49-11.19L56.49-11.19Q56.20-11.08 56.26-11.25L56.26-11.25L56.26-11.25Q56.32-11.43 56.43-11.54L56.43-11.54L56.43-11.54Q56.96-11.89 57.54-12.21L57.54-12.21L57.54-12.21Q58.12-12.53 58.64-12.70L58.64-12.70L58.64-12.70Q59.33-15.78 60.32-18.82L60.32-18.82L60.32-18.82Q61.31-21.87 62.29-25.06L62.29-25.06L62.29-25.06Q63.22-28.01 63.97-31.26L63.97-31.26L63.97-31.26Q64.73-34.51 64.61-38.16L64.61-38.16L64.61-38.16Q64.61-38.51 64.73-38.51L64.73-38.51L64.73-38.51Q64.84-38.51 64.87-38.34L64.87-38.34L64.87-38.34Q64.90-38.16 65.02-38.05L65.02-38.05L65.02-38.05Q65.60-36.83 65.60-34.80L65.60-34.80L65.60-34.80Q65.60-32.77 65.25-30.42L65.25-30.42L65.25-30.42Q64.90-28.07 64.32-25.64L64.32-25.64L64.32-25.64Q63.74-23.20 63.16-21.23L63.16-21.23L63.16-21.23Q64.32-22.45 65.74-23.29L65.74-23.29L65.74-23.29Q67.16-24.13 68.59-24.91L68.59-24.91L68.59-24.91Q70.01-25.69 71.22-26.68L71.22-26.68L71.22-26.68Q72.44-27.67 73.20-29.17L73.20-29.17L73.20-29.17Q73.20-29.23 73.23-29.29L73.23-29.29L73.23-29.29Q73.25-29.35 73.31-29.23L73.31-29.23L73.31-29.23Q73.31-29.17 73.34-29.06L73.34-29.06L73.34-29.06Q73.37-28.94 73.37-28.83L73.37-28.83L73.37-28.83Q73.25-26.97 72.27-25.72L72.27-25.72L72.27-25.72Q71.28-24.48 69.89-23.49L69.89-23.49L69.89-23.49Q68.50-22.50 66.87-21.63L66.87-21.63L66.87-21.63Q65.25-20.76 63.86-19.72L63.86-19.72L63.86-19.72Q62.18-18.44 61.60-16.65L61.60-16.65L61.60-16.65Q61.02-14.85 60.61-13.11L60.61-13.11L60.61-13.11Q60.90-13.51 61.22-14.01L61.22-14.01L61.22-14.01Q61.54-14.50 61.83-14.94L61.83-14.94L61.83-14.94Q62.12-15.37 62.35-15.60L62.35-15.60L62.35-15.60Q62.58-15.83 62.70-15.72L62.70-15.72L62.70-15.72Q62.76-15.66 62.67-15.34L62.67-15.34L62.67-15.34Q62.58-15.02 62.47-14.62L62.47-14.62L62.47-14.62Q62.35-14.21 62.23-13.80L62.23-13.80L62.23-13.80Q62.12-13.40 62.06-13.17L62.06-13.17L62.06-13.17Q62.35-13.11 62.55-13.11L62.55-13.11L62.55-13.11Q62.76-13.11 62.93-13.05L62.93-13.05L62.93-13.05Q64.26-14.96 66.06-16.27L66.06-16.27L66.06-16.27Q67.86-17.57 69.83-18.73L69.83-18.73L69.83-18.73Q71.17-19.55 72.41-20.47L72.41-20.47L72.41-20.47Q73.66-21.40 74.65-22.91L74.65-22.91L74.65-22.91Q74.70-23.08 74.82-22.97L74.82-22.97L74.82-22.97Q74.88-22.91 74.85-22.82L74.85-22.82L74.85-22.82Q74.82-22.74 74.88-22.56L74.88-22.56L74.88-22.56Q74.94-21.34 74.18-20.24L74.18-20.24L74.18-20.24Q73.43-19.14 72.33-18.21L72.33-18.21L72.33-18.21Q71.22-17.28 70.06-16.53L70.06-16.53L70.06-16.53Q68.90-15.78 68.27-15.25L68.27-15.25L68.27-15.25Q67.34-14.56 66.24-13.95L66.24-13.95L66.24-13.95Q65.13-13.34 64.15-12.82L64.15-12.82L64.15-12.82Q65.89-12.24 67.40-10.96L67.40-10.96L67.40-10.96Q68.73-9.92 69.89-8.61L69.89-8.61L69.89-8.61Q71.05-7.31 72.21-6.09L72.21-6.09L72.21-6.09Q73.37-4.87 74.56-3.94L74.56-3.94L74.56-3.94Q75.75-3.02 77.14-2.73" fill="#0055a5" stroke="none" stroke-width="none" transform="translate(-72.07720947265625,14.908509586879184)" style="fill: rgb(69, 174, 231); animation-play-state: running; animation-delay: 0s;"></path></g><g class="path" style="transform: matrix(0.01, 0, 0, 0.01, 0, 0); transform-origin: -7.582211px 10.44351px; animation: 1s linear 0.094286s forwards bounce-in-db708eb3-b5ce-42dd-80ae-79e8669927cb;"><path d="M58.93-8.24L58.93-8.24L58.93-8.24Q58.81-7.89 58.61-7.25L58.61-7.25L58.61-7.25Q58.41-6.61 58.29-6.03L58.29-6.03L58.29-6.03Q58.17-5.74 58.15-5.45L58.15-5.45L58.15-5.45Q58.12-5.16 58.00-5.22L58.00-5.22L58.00-5.22Q57.83-5.28 57.74-5.68L57.74-5.68L57.74-5.68Q57.65-6.09 57.65-6.38L57.65-6.38L57.65-6.38Q57.65-6.79 57.65-7.31L57.65-7.31L57.65-7.31Q57.65-7.83 57.74-8.27L57.74-8.27L57.74-8.27Q57.83-8.70 58.09-8.99L58.09-8.99L58.09-8.99Q58.35-9.28 58.87-9.28L58.87-9.28L58.87-9.28Q59.62-9.22 60.52-8.73L60.52-8.73L60.52-8.73Q61.42-8.24 62.35-7.45L62.35-7.45L62.35-7.45Q63.28-6.67 64.21-5.71L64.21-5.71L64.21-5.71Q65.13-4.76 66.06-3.77L66.06-3.77L66.06-3.77Q67.05-2.67 68.24-1.54L68.24-1.54L68.24-1.54Q69.43-0.41 71.11 0.06L71.11 0.06L71.11 0.06Q71.34 0.17 71.34 0.26L71.34 0.26L71.34 0.26Q71.34 0.35 71.05 0.35L71.05 0.35L71.05 0.35Q69.89 0.35 68.70-0.15L68.70-0.15L68.70-0.15Q67.51-0.64 66.38-1.36L66.38-1.36L66.38-1.36Q65.25-2.09 64.29-2.90L64.29-2.90L64.29-2.90Q63.34-3.71 62.64-4.35L62.64-4.35L62.64-4.35Q61.65-5.28 60.70-6.32L60.70-6.32L60.70-6.32Q59.74-7.37 58.93-8.24" fill="#0055a5" stroke="none" stroke-width="none" transform="translate(-72.07720947265625,14.908509586879184)" style="fill: rgb(216, 240, 91); animation-play-state: running; animation-delay: 0s;"></path></g><g class="path" style="transform: matrix(0.01, 0, 0, 0.01, 0, 0); transform-origin: -13.574039px 9.404716px; animation: 1s linear 0.023571s forwards bounce-in-db708eb3-b5ce-42dd-80ae-79e8669927cb;"><path d="M58.23-0.06L58.23-0.06L58.23-0.06Q58.35 0.12 58.20 0.17L58.20 0.17L58.20 0.17Q58.06 0.23 57.77 0L57.77 0L57.77 0Q57.07-0.64 56.49-1.54L56.49-1.54L56.49-1.54Q55.91-2.44 55.62-4.29L55.62-4.29L55.62-4.29Q55.39-5.39 55.30-6.64L55.30-6.64L55.30-6.64Q55.22-7.89 55.51-8.87L55.51-8.87L55.51-8.87Q55.80-9.86 56.61-10.53L56.61-10.53L56.61-10.53Q57.42-11.19 58.99-11.19L58.99-11.19L58.99-11.19Q59.39-11.19 59.91-11.08L59.91-11.08L59.91-11.08Q60.44-10.96 60.87-10.82L60.87-10.82L60.87-10.82Q61.31-10.67 61.57-10.47L61.57-10.47L61.57-10.47Q61.83-10.27 61.65-10.09L61.65-10.09L61.65-10.09Q61.60-9.92 61.05-9.98L61.05-9.98L61.05-9.98Q60.49-10.03 60.38-10.03L60.38-10.03L60.38-10.03Q59.68-10.15 59.02-10.18L59.02-10.18L59.02-10.18Q58.35-10.21 57.83-10.03L57.83-10.03L57.83-10.03Q57.30-9.86 56.99-9.37L56.99-9.37L56.99-9.37Q56.67-8.87 56.67-7.95L56.67-7.95L56.67-7.95Q56.67-5.97 57.01-4.23L57.01-4.23L57.01-4.23Q57.25-3.07 57.51-2.06L57.51-2.06L57.51-2.06Q57.77-1.04 58.23-0.06" fill="#0055a5" stroke="none" stroke-width="none" transform="translate(-72.07720947265625,14.908509586879184)" style="fill: rgb(69, 174, 231); animation-play-state: running; animation-delay: 0s;"></path></g><g class="path" style="transform: matrix(0.01, 0, 0, 0.01, 0, 0); transform-origin: 14.451359px 0.958509px; animation: 1s linear 0.070714s forwards bounce-in-db708eb3-b5ce-42dd-80ae-79e8669927cb;"><path d="M95.06-16.07L95.06-16.07L95.06-16.07Q95.24-17.63 95.12-19.37L95.12-19.37L95.12-19.37Q95.00-21.11 94.40-22.59L94.40-22.59L94.40-22.59Q93.79-24.07 92.54-25.06L92.54-25.06L92.54-25.06Q91.29-26.04 89.26-26.04L89.26-26.04L89.26-26.04Q86.54-26.04 84.51-24.56L84.51-24.56L84.51-24.56Q82.48-23.08 81.03-20.91L81.03-20.91L81.03-20.91Q79.58-18.73 78.76-16.27L78.76-16.27L78.76-16.27Q77.95-13.80 77.72-11.77L77.72-11.77L77.72-11.77Q77.37-8.99 77.63-6.96L77.63-6.96L77.63-6.96Q77.89-4.93 78.59-3.63L78.59-3.63L78.59-3.63Q79.29-2.32 80.36-1.68L80.36-1.68L80.36-1.68Q81.43-1.04 82.71-1.04L82.71-1.04L82.71-1.04Q84.51-0.99 86.51-2.06L86.51-2.06L86.51-2.06Q88.51-3.13 90.25-5.08L90.25-5.08L90.25-5.08Q91.99-7.02 93.29-9.83L93.29-9.83L93.29-9.83Q94.60-12.64 95.06-16.07zM76.39-12.06L76.39-12.06L76.39-12.06Q76.62-14.38 77.55-17.17L77.55-17.17L77.55-17.17Q78.47-19.95 80.13-22.33L80.13-22.33L80.13-22.33Q81.78-24.71 84.10-26.30L84.10-26.30L84.10-26.30Q86.42-27.90 89.49-27.90L89.49-27.90L89.49-27.90Q91.81-27.90 93.32-26.80L93.32-26.80L93.32-26.80Q94.83-25.69 95.64-23.98L95.64-23.98L95.64-23.98Q96.45-22.27 96.69-20.27L96.69-20.27L96.69-20.27Q96.92-18.27 96.69-16.47L96.69-16.47L96.69-16.47Q96.16-12.30 94.66-9.22L94.66-9.22L94.66-9.22Q93.15-6.15 91.12-4.09L91.12-4.09L91.12-4.09Q89.09-2.03 86.83-1.02L86.83-1.02L86.83-1.02Q84.56 0 82.48 0L82.48 0L82.48 0Q80.91 0 79.66-0.70L79.66-0.70L79.66-0.70Q78.42-1.39 77.58-2.87L77.58-2.87L77.58-2.87Q76.73-4.35 76.42-6.64L76.42-6.64L76.42-6.64Q76.10-8.93 76.39-12.06zM82.88-3.89L82.88-3.89L82.88-3.89Q82.59-3.89 82.30-4.09L82.30-4.09L82.30-4.09Q82.01-4.29 81.84-4.58L81.84-4.58L81.84-4.58Q81.66-4.87 81.61-5.16L81.61-5.16L81.61-5.16Q81.55-5.45 81.84-5.57L81.84-5.57L81.84-5.57Q82.01-5.63 82.30-5.16L82.30-5.16L82.30-5.16Q82.59-4.70 82.94-4.70L82.94-4.70L82.94-4.70Q83.52-4.70 84.30-5.45L84.30-5.45L84.30-5.45Q85.09-6.21 85.81-7.22L85.81-7.22L85.81-7.22Q86.54-8.24 87.09-9.22L87.09-9.22L87.09-9.22Q87.64-10.21 87.87-10.67L87.87-10.67L87.87-10.67Q88.10-11.14 88.33-11.86L88.33-11.86L88.33-11.86Q88.57-12.59 88.77-13.34L88.77-13.34L88.77-13.34Q88.97-14.09 89.12-14.82L89.12-14.82L89.12-14.82Q89.26-15.54 89.32-16.07L89.32-16.07L89.32-16.07Q89.61-18.68 89.20-20.10L89.20-20.10L89.20-20.10Q88.80-21.52 87.87-21.52L87.87-21.52L87.87-21.52Q87.17-21.52 86.42-21.08L86.42-21.08L86.42-21.08Q85.67-20.65 85.00-19.95L85.00-19.95L85.00-19.95Q84.33-19.26 83.81-18.42L83.81-18.42L83.81-18.42Q83.29-17.57 83.06-16.70L83.06-16.70L83.06-16.70Q82.77-15.72 82.65-15.72L82.65-15.72L82.65-15.72Q82.48-15.72 82.48-16.70L82.48-16.70L82.48-16.70Q82.65-17.81 83.23-18.88L83.23-18.88L83.23-18.88Q83.81-19.95 84.68-20.79L84.68-20.79L84.68-20.79Q85.55-21.63 86.59-22.19L86.59-22.19L86.59-22.19Q87.64-22.74 88.74-22.74L88.74-22.74L88.74-22.74Q89.84-22.74 90.39-21.95L90.39-21.95L90.39-21.95Q90.94-21.17 91.18-20.04L91.18-20.04L91.18-20.04Q91.41-18.91 91.38-17.72L91.38-17.72L91.38-17.72Q91.35-16.53 91.23-15.83L91.23-15.83L91.23-15.83Q91.00-14.27 90.51-12.79L90.51-12.79L90.51-12.79Q90.02-11.31 89.32-9.80L89.32-9.80L89.32-9.80Q88.97-9.11 88.28-8.09L88.28-8.09L88.28-8.09Q87.58-7.08 86.68-6.15L86.68-6.15L86.68-6.15Q85.78-5.22 84.77-4.55L84.77-4.55L84.77-4.55Q83.75-3.89 82.88-3.89zM84.74-2.78L84.74-2.78L84.74-2.78Q84.80-2.44 84.19-2.20L84.19-2.20L84.19-2.20Q83.58-1.97 82.94-1.97L82.94-1.97L82.94-1.97Q81.14-2.03 80.19-3.13L80.19-3.13L80.19-3.13Q79.23-4.23 78.85-5.74L78.85-5.74L78.85-5.74Q78.47-7.25 78.50-8.87L78.50-8.87L78.50-8.87Q78.53-10.50 78.65-11.60L78.65-11.60L78.65-11.60Q78.88-13.51 79.58-15.89L79.58-15.89L79.58-15.89Q80.27-18.27 81.55-20.36L81.55-20.36L81.55-20.36Q82.82-22.45 84.68-23.87L84.68-23.87L84.68-23.87Q86.54-25.29 89.09-25.29L89.09-25.29L89.09-25.29Q90.77-25.29 91.79-24.42L91.79-24.42L91.79-24.42Q92.80-23.55 93.29-22.27L93.29-22.27L93.29-22.27Q93.79-21.00 93.87-19.52L93.87-19.52L93.87-19.52Q93.96-18.04 93.79-16.82L93.79-16.82L93.79-16.82Q93.67-15.49 93.38-14.38L93.38-14.38L93.38-14.38Q93.09-13.28 92.57-11.95L92.57-11.95L92.57-11.95Q92.39-11.54 92.10-11.02L92.10-11.02L92.10-11.02Q91.81-10.50 91.47-10.56L91.47-10.56L91.47-10.56Q91.29-10.61 91.38-11.02L91.38-11.02L91.38-11.02Q91.47-11.43 91.61-12.04L91.61-12.04L91.61-12.04Q91.76-12.64 91.93-13.31L91.93-13.31L91.93-13.31Q92.10-13.98 92.16-14.56L92.16-14.56L92.16-14.56Q92.28-15.54 92.31-17.02L92.31-17.02L92.31-17.02Q92.34-18.50 92.08-19.89L92.08-19.89L92.08-19.89Q91.81-21.29 91.12-22.27L91.12-22.27L91.12-22.27Q90.42-23.26 89.03-23.26L89.03-23.26L89.03-23.26Q87.00-23.26 85.29-21.95L85.29-21.95L85.29-21.95Q83.58-20.65 82.30-18.76L82.30-18.76L82.30-18.76Q81.03-16.88 80.24-14.82L80.24-14.82L80.24-14.82Q79.46-12.76 79.29-11.19L79.29-11.19L79.29-11.19Q79.17-10.27 79.23-8.87L79.23-8.87L79.23-8.87Q79.29-7.48 79.66-6.12L79.66-6.12L79.66-6.12Q80.04-4.76 80.91-3.77L80.91-3.77L80.91-3.77Q81.78-2.78 83.29-2.73L83.29-2.73L83.29-2.73Q83.75-2.67 84.19-2.81L84.19-2.81L84.19-2.81Q84.62-2.96 84.74-2.78" fill="#0055a5" stroke="none" stroke-width="none" transform="translate(-72.07720947265625,14.908509586879184)" style="fill: rgb(206, 100, 166); animation-play-state: running; animation-delay: 0s;"></path></g><g class="path" style="transform: matrix(0.01, 0, 0, 0.01, 0, 0); transform-origin: 50.294643px -5.833929px; animation: 1s linear 0.565714s forwards bounce-in-db708eb3-b5ce-42dd-80ae-79e8669927cb;"><path d="M120.70-8.87L120.70-8.87L120.70-8.87Q122.90-10.96 124.67-13.05L124.67-13.05L124.67-13.05Q126.44-15.14 127.98-17.72L127.98-17.72L127.98-17.72Q129.51-20.30 130.82-23.64L130.82-23.64L130.82-23.64Q132.12-26.97 133.40-31.49L133.40-31.49L133.40-31.49Q134.10-34.10 134.59-36.54L134.59-36.54L134.59-36.54Q135.08-38.98 134.97-41.30L134.97-41.30L134.97-41.30Q134.97-41.76 135.02-41.76L135.02-41.76L135.02-41.76Q135.14-41.76 135.20-41.59L135.20-41.59L135.20-41.59Q135.26-41.41 135.31-41.30L135.31-41.30L135.31-41.30Q136.18-38.57 135.89-35.58L135.89-35.58L135.89-35.58Q135.60-32.60 134.79-29.49L134.79-29.49L134.79-29.49Q133.98-26.39 132.91-23.20L132.91-23.20L132.91-23.20Q131.83-20.01 131.08-16.82L131.08-16.82L131.08-16.82Q130.62-14.85 130.38-12.64L130.38-12.64L130.38-12.64Q130.15-10.44 130.24-8.27L130.24-8.27L130.24-8.27Q130.33-6.09 130.79-4.00L130.79-4.00L130.79-4.00Q131.25-1.91 132.24-0.12L132.24-0.12L132.24-0.12Q132.30-0.06 132.30 0.06L132.30 0.06L132.30 0.17L132.30 0.17Q132.12 0.17 132.07 0.12L132.07 0.12L131.95 0L131.95 0Q129.69-2.44 128.88-5.97L128.88-5.97L128.88-5.97Q128.06-4.99 127.22-4.06L127.22-4.06L127.22-4.06Q126.38-3.13 124.87-2.15L124.87-2.15L124.87-2.15Q122.44-0.52 119.45 0.09L119.45 0.09L119.45 0.09Q116.46 0.70 113.51-0.70L113.51-0.70L113.51-0.70Q111.77-1.57 110.84-2.99L110.84-2.99L110.84-2.99Q109.91-4.41 109.48-6.06L109.48-6.06L109.48-6.06Q109.04-7.71 108.95-9.43L108.95-9.43L108.95-9.43Q108.87-11.14 108.81-12.53L108.81-12.53L108.81-12.53Q108.69-15.25 109.07-17.81L109.07-17.81L109.07-17.81Q109.45-20.36 110.08-22.59L110.08-22.59L110.08-22.59Q110.72-24.82 111.53-26.62L111.53-26.62L111.53-26.62Q112.35-28.42 113.10-29.64L113.10-29.64L113.10-29.64Q113.16-29.75 113.30-29.90L113.30-29.90L113.30-29.90Q113.45-30.04 113.51-30.04L113.51-30.04L113.51-30.04Q113.62-29.99 113.54-29.73L113.54-29.73L113.54-29.73Q113.45-29.46 113.39-29.35L113.39-29.35L113.39-29.35Q112.52-26.74 111.82-24.01L111.82-24.01L111.82-24.01Q111.13-21.29 110.78-18.50L110.78-18.50L110.78-18.50Q110.43-15.72 110.52-12.91L110.52-12.91L110.52-12.91Q110.61-10.09 111.30-7.25L111.30-7.25L111.30-7.25Q111.59-6.09 112.17-4.84L112.17-4.84L112.17-4.84Q112.75-3.60 114.09-2.61L114.09-2.61L114.09-2.61Q114.84-2.03 115.65-1.80L115.65-1.80L115.65-1.80Q116.46-1.57 117.22-1.54L117.22-1.54L117.22-1.54Q117.97-1.51 118.64-1.62L118.64-1.62L118.64-1.62Q119.31-1.74 119.89-1.91L119.89-1.91L119.89-1.91Q122.50-2.55 124.38-4.23L124.38-4.23L124.38-4.23Q126.27-5.92 127.60-7.66L127.60-7.66L127.60-7.66Q128.12-8.24 128.47-8.99L128.47-8.99L128.47-8.99Q128.41-10.09 128.53-11.54L128.53-11.54L128.53-11.54Q128.64-12.99 128.82-14.27L128.82-14.27L128.82-14.27Q128.99-15.54 129.11-16.41L129.11-16.41L129.11-16.41Q129.22-17.28 129.17-17.23L129.17-17.23L129.17-17.23Q127.83-14.27 126.01-12.04L126.01-12.04L126.01-12.04Q124.18-9.80 122.84-8.41L122.84-8.41L122.84-8.41Q121.97-7.48 120.90-6.79L120.90-6.79L120.90-6.79Q119.83-6.09 118.78-5.80L118.78-5.80L118.78-5.80Q117.74-5.51 116.87-5.80L116.87-5.80L116.87-5.80Q116.00-6.09 115.59-7.13L115.59-7.13L115.59-7.13Q114.78-9.51 114.43-12.38L114.43-12.38L114.43-12.38Q114.09-15.25 114.38-18.21L114.38-18.21L114.38-18.21Q115.01-24.13 117.19-29.87L117.19-29.87L117.19-29.87Q119.36-35.61 123.31-40.37L123.31-40.37L123.31-40.37Q123.54-40.66 123.74-40.77L123.74-40.77L123.74-40.77Q123.95-40.89 123.60-40.31L123.60-40.31L123.60-40.31Q122.32-38.34 121.13-35.79L121.13-35.79L121.13-35.79Q119.94-33.23 118.99-30.42L118.99-30.42L118.99-30.42Q118.03-27.61 117.31-24.65L117.31-24.65L117.31-24.65Q116.58-21.69 116.29-18.91L116.29-18.91L116.29-18.91Q116.00-16.12 116.06-13.43L116.06-13.43L116.06-13.43Q116.12-10.73 116.93-8.64L116.93-8.64L116.93-8.64Q117.22-7.89 117.71-7.69L117.71-7.69L117.71-7.69Q118.20-7.48 118.73-7.63L118.73-7.63L118.73-7.63Q119.25-7.77 119.77-8.15L119.77-8.15L119.77-8.15Q120.29-8.53 120.70-8.87" fill="#0055a5" stroke="none" stroke-width="none" transform="translate(-72.07720947265625,14.908509586879184)" style="fill: rgb(0, 85, 165); animation-play-state: running; animation-delay: 0s;"></path></g><g class="path" style="transform: matrix(0.01, 0, 0, 0.01, 0, 0); transform-origin: 45.159584px -5.695562px; animation: 1s linear 0.471429s forwards bounce-in-db708eb3-b5ce-42dd-80ae-79e8669927cb;"><path d="M121.63-4.23L121.63-4.23L121.63-4.23Q120.99-3.89 120.29-3.54L120.29-3.54L120.29-3.54Q119.60-3.19 118.87-2.99L118.87-2.99L118.87-2.99Q118.15-2.78 117.33-2.78L117.33-2.78L117.33-2.78Q116.52-2.78 115.65-3.07L115.65-3.07L115.65-3.07Q113.97-3.65 113.25-5.02L113.25-5.02L113.25-5.02Q112.52-6.38 112.11-7.66L112.11-7.66L112.11-7.66Q111.19-10.44 111.27-13.20L111.27-13.20L111.27-13.20Q111.36-15.95 111.71-19.08L111.71-19.08L111.71-19.08Q111.94-21.29 112.67-23.93L112.67-23.93L112.67-23.93Q113.39-26.56 114.49-29.17L114.49-29.17L114.49-29.17Q115.59-31.78 116.96-34.05L116.96-34.05L116.96-34.05Q118.32-36.31 119.83-37.76L119.83-37.76L119.83-37.76Q119.94-37.87 120.26-38.19L120.26-38.19L120.26-38.19Q120.58-38.51 120.70-38.40L120.70-38.40L120.70-38.40Q120.76-38.34 120.18-37.41L120.18-37.41L120.18-37.41Q119.60-36.48 118.78-34.92L118.78-34.92L118.78-34.92Q117.97-33.35 117.16-31.35L117.16-31.35L117.16-31.35Q116.35-29.35 115.57-27.06L115.57-27.06L115.57-27.06Q114.78-24.77 114.26-22.33L114.26-22.33L114.26-22.33Q113.74-19.95 113.56-17.69L113.56-17.69L113.56-17.69Q113.39-15.43 113.42-13.54L113.42-13.54L113.42-13.54Q113.45-11.66 113.59-10.35L113.59-10.35L113.59-10.35Q113.74-9.05 113.85-8.58L113.85-8.58L113.85-8.58Q114.14-7.42 114.70-6.18L114.70-6.18L114.70-6.18Q115.25-4.93 116.23-4.47L116.23-4.47L116.23-4.47Q117.22-4.00 118.70-4.18L118.70-4.18L118.70-4.18Q120.18-4.35 121.34-4.99L121.34-4.99L121.34-4.99Q121.39-5.05 121.68-5.22L121.68-5.22L121.68-5.22Q121.97-5.39 122.29-5.60L122.29-5.60L122.29-5.60Q122.61-5.80 122.87-5.95L122.87-5.95L122.87-5.95Q123.13-6.09 123.19-6.03L123.19-6.03L123.19-6.03Q123.25-5.92 123.13-5.68L123.13-5.68L123.13-5.68Q123.02-5.45 122.76-5.16L122.76-5.16L122.76-5.16Q122.50-4.87 122.18-4.61L122.18-4.61L122.18-4.61Q121.86-4.35 121.63-4.23" fill="#0055a5" stroke="none" stroke-width="none" transform="translate(-72.07720947265625,14.908509586879184)" style="fill: rgb(189, 160, 178); animation-play-state: running; animation-delay: 0s;"></path></g><g class="path" style="transform: matrix(0.01, 0, 0, 0.01, 0, 0); transform-origin: 64.820847px -4.981348px; animation: 1s linear 0.447857s forwards bounce-in-db708eb3-b5ce-42dd-80ae-79e8669927cb;"><path d="M137.34-16.30L137.34-16.30L137.34-16.30Q136.65-13.51 135.69-10.61L135.69-10.61L135.69-10.61Q134.73-7.71 134.04-5.57L134.04-5.57L134.04-5.57Q133.92-5.28 133.81-4.99L133.81-4.99L133.81-4.99Q133.69-4.70 133.57-4.76L133.57-4.76L133.57-4.76Q133.40-4.81 133.40-5.13L133.40-5.13L133.40-5.13Q133.40-5.45 133.40-5.74L133.40-5.74L133.40-5.74Q133.63-10.09 134.71-14.38L134.71-14.38L134.71-14.38Q135.78-18.68 137.11-23.03L137.11-23.03L137.11-23.03Q137.92-25.75 138.65-28.57L138.65-28.57L138.65-28.57Q139.37-31.38 139.49-34.63L139.49-34.63L139.49-34.63Q139.49-35.03 139.61-35.03L139.61-35.03L139.61-35.03Q139.78-35.03 139.90-34.63L139.90-34.63L139.90-34.63Q140.53-33.06 140.36-30.60L140.36-30.60L140.36-30.60Q140.19-28.13 139.64-25.46L139.64-25.46L139.64-25.46Q139.08-22.79 138.39-20.30L138.39-20.30L138.39-20.30Q137.69-17.81 137.34-16.30" fill="#0055a5" stroke="none" stroke-width="none" transform="translate(-72.07720947265625,14.908509586879184)" style="fill: rgb(69, 174, 231); animation-play-state: running; animation-delay: 0s;"></path></g><g class="path" style="transform: matrix(0.01, 0, 0, 0.01, 0, 0); transform-origin: 63.527328px -12.897892px; animation: 1s linear 0.306429s forwards bounce-in-db708eb3-b5ce-42dd-80ae-79e8669927cb;"><path d="M137.98-29L137.98-29L137.98-29Q137.17-25.87 136.24-22.56L136.24-22.56L136.24-22.56Q135.31-19.26 133.63-16.30L133.63-16.30L133.63-16.30Q133.52-16.12 133.26-15.69L133.26-15.69L133.26-15.69Q132.99-15.25 132.82-15.31L132.82-15.31L132.82-15.31Q132.70-15.31 132.70-15.78L132.70-15.78L132.70-15.78Q132.70-16.24 132.76-16.53L132.76-16.53L132.76-16.53Q132.82-17.23 132.99-18.24L132.99-18.24L132.99-18.24Q133.17-19.26 133.43-20.33L133.43-20.33L133.43-20.33Q133.69-21.40 133.95-22.42L133.95-22.42L133.95-22.42Q134.21-23.43 134.44-24.13L134.44-24.13L134.44-24.13Q134.56-24.48 134.82-25.49L134.82-25.49L134.82-25.49Q135.08-26.51 135.37-27.90L135.37-27.90L135.37-27.90Q135.66-29.29 135.95-30.94L135.95-30.94L135.95-30.94Q136.24-32.60 136.45-34.22L136.45-34.22L136.45-34.22Q136.65-35.84 136.71-37.29L136.71-37.29L136.71-37.29Q136.76-38.74 136.59-39.79L136.59-39.79L136.59-39.79Q136.47-40.31 136.65-40.31L136.65-40.31L136.65-40.31Q136.76-40.31 136.88-40.19L136.88-40.19L136.88-40.19Q137.00-40.08 137.05-39.96L137.05-39.96L137.05-39.96Q137.75-38.98 138.07-37.58L138.07-37.58L138.07-37.58Q138.39-36.19 138.48-34.68L138.48-34.68L138.48-34.68Q138.56-33.18 138.42-31.67L138.42-31.67L138.42-31.67Q138.27-30.16 137.98-29" fill="#0055a5" stroke="none" stroke-width="none" transform="translate(-72.07720947265625,14.908509586879184)" style="fill: rgb(69, 174, 231); animation-play-state: running; animation-delay: 0s;"></path></g><g class="path" style="transform: matrix(0.01, 0, 0, 0.01, 0, 0); transform-origin: 60.540787px 10.238509px; animation: 1s linear 0.424286s forwards bounce-in-db708eb3-b5ce-42dd-80ae-79e8669927cb;"><path d="M132.76-3.94L132.76-3.94L132.76-3.94Q132.94-2.78 133.14-1.86L133.14-1.86L133.14-1.86Q133.34-0.93 133.86-0.06L133.86-0.06L133.86-0.06Q133.92 0 133.95 0.15L133.95 0.15L133.95 0.15Q133.98 0.29 133.86 0.29L133.86 0.29L133.86 0.29Q133.57 0.29 133.28 0L133.28 0L133.28 0Q132.65-0.75 132.24-1.45L132.24-1.45L132.24-1.45Q131.83-2.15 131.49-3.89L131.49-3.89L131.49-3.89Q131.37-4.58 131.31-5.57L131.31-5.57L131.31-5.57Q131.25-6.55 131.31-7.48L131.31-7.48L131.31-7.48Q131.37-8.41 131.52-9.02L131.52-9.02L131.52-9.02Q131.66-9.63 131.89-9.63L131.89-9.63L131.89-9.63Q131.95-9.63 132.04-9.31L132.04-9.31L132.04-9.31Q132.12-8.99 132.21-8.61L132.21-8.61L132.21-8.61Q132.30-8.24 132.33-7.86L132.33-7.86L132.33-7.86Q132.36-7.48 132.36-7.37L132.36-7.37L132.36-7.37Q132.53-5.57 132.76-3.94" fill="#0055a5" stroke="none" stroke-width="none" transform="translate(-72.07720947265625,14.908509586879184)" style="fill: rgb(0, 85, 165); animation-play-state: running; animation-delay: 0s;"></path></g><g class="path" style="transform: matrix(0.01, 0, 0, 0.01, 0, 0); transform-origin: 78.127411px -13.332892px; animation: 1s linear 0.117857s forwards bounce-in-db708eb3-b5ce-42dd-80ae-79e8669927cb;"><path d="M152.54-29.46L152.54-29.46L152.54-29.46Q151.73-26.33 150.54-22.97L150.54-22.97L150.54-22.97Q149.35-19.60 148.07-16.59L148.07-16.59L148.07-16.59Q148.02-16.47 147.84-16.04L147.84-16.04L147.84-16.04Q147.67-15.60 147.44-15.66L147.44-15.66L147.44-15.66Q147.32-15.66 147.35-16.15L147.35-16.15L147.35-16.15Q147.38-16.65 147.38-16.82L147.38-16.82L147.38-16.82Q147.44-17.52 147.61-18.56L147.61-18.56L147.61-18.56Q147.78-19.60 148.02-20.71L148.02-20.71L148.02-20.71Q148.25-21.81 148.48-22.85L148.48-22.85L148.48-22.85Q148.71-23.90 148.94-24.65L148.94-24.65L148.94-24.65Q149.06-25.00 149.32-26.07L149.32-26.07L149.32-26.07Q149.58-27.14 149.90-28.65L149.90-28.65L149.90-28.65Q150.22-30.16 150.54-31.90L150.54-31.90L150.54-31.90Q150.86-33.64 151.09-35.26L151.09-35.26L151.09-35.26Q151.32-36.89 151.38-38.22L151.38-38.22L151.38-38.22Q151.44-39.56 151.21-40.31L151.21-40.31L151.21-40.31Q151.09-40.54 151.15-40.69L151.15-40.69L151.15-40.69Q151.21-40.83 151.26-40.83L151.26-40.83L151.26-40.83Q151.38-40.83 151.44-40.69L151.44-40.69L151.44-40.69Q151.50-40.54 151.61-40.43L151.61-40.43L151.61-40.43Q152.25-39.44 152.60-38.05L152.60-38.05L152.60-38.05Q152.95-36.66 153.03-35.12L153.03-35.12L153.03-35.12Q153.12-33.58 152.98-32.07L152.98-32.07L152.98-32.07Q152.83-30.57 152.54-29.46" fill="#0055a5" stroke="none" stroke-width="none" transform="translate(-72.07720947265625,14.908509586879184)" style="fill: rgb(85, 173, 21); animation-play-state: running; animation-delay: 0s;"></path></g><g class="path" style="transform: matrix(0.01, 0, 0, 0.01, 0, 0); transform-origin: 79.420357px -5.37514px; animation: 1s linear 0.518571s forwards bounce-in-db708eb3-b5ce-42dd-80ae-79e8669927cb;"><path d="M152.02-16.59L152.02-16.59L152.02-16.59Q151.32-13.80 150.34-10.90L150.34-10.90L150.34-10.90Q149.35-8.00 148.60-5.80L148.60-5.80L148.60-5.80Q148.48-5.51 148.36-5.25L148.36-5.25L148.36-5.25Q148.25-4.99 148.19-5.10L148.19-5.10L148.19-5.10Q148.07-5.10 148.05-5.39L148.05-5.39L148.05-5.39Q148.02-5.68 148.02-5.97L148.02-5.97L148.02-5.97Q148.19-10.32 149.26-14.67L149.26-14.67L149.26-14.67Q150.34-19.02 151.67-23.43L151.67-23.43L151.67-23.43Q152.48-26.16 153.15-29.03L153.15-29.03L153.15-29.03Q153.82-31.90 154.05-35.21L154.05-35.21L154.05-35.21Q154.05-35.50 154.22-35.50L154.22-35.50L154.22-35.50Q154.28-35.50 154.34-35.38L154.34-35.38L154.34-35.38Q154.40-35.26 154.45-35.15L154.45-35.15L154.45-35.15Q155.09-33.58 154.95-31.06L154.95-31.06L154.95-31.06Q154.80-28.54 154.28-25.84L154.28-25.84L154.28-25.84Q153.76-23.14 153.06-20.62L153.06-20.62L153.06-20.62Q152.37-18.10 152.02-16.59" fill="#0055a5" stroke="none" stroke-width="none" transform="translate(-72.07720947265625,14.908509586879184)" style="fill: rgb(216, 240, 91); animation-play-state: running; animation-delay: 0s;"></path></g><g class="path" style="transform: matrix(0.01, 0, 0, 0.01, 0, 0); transform-origin: 74.722076px -6.17149px; animation: 1s linear 0.612857s forwards bounce-in-db708eb3-b5ce-42dd-80ae-79e8669927cb;"><path d="M146.68-0.23L146.68-0.23L146.68-0.23Q146.86 0.12 146.80 0.12L146.80 0.12L146.80 0.12Q146.68 0.12 146.57 0.06L146.57 0.06L146.57 0.06Q146.45 0 146.39 0L146.39 0L146.39 0Q144.77-1.91 144.01-4.15L144.01-4.15L144.01-4.15Q143.26-6.38 143.12-8.76L143.12-8.76L143.12-8.76Q142.97-11.14 143.29-13.57L143.29-13.57L143.29-13.57Q143.61-16.01 144.13-18.33L144.13-18.33L144.13-18.33Q144.88-21.52 145.87-24.68L145.87-24.68L145.87-24.68Q146.86-27.84 147.70-30.83L147.70-30.83L147.70-30.83Q148.54-33.81 149.09-36.60L149.09-36.60L149.09-36.60Q149.64-39.38 149.58-41.93L149.58-41.93L149.58-41.93Q149.58-42.22 149.70-42.28L149.70-42.28L149.70-42.28Q149.76-42.28 149.84-42.11L149.84-42.11L149.84-42.11Q149.93-41.93 149.93-41.88L149.93-41.88L149.93-41.88Q150.74-39.09 150.45-36.11L150.45-36.11L150.45-36.11Q150.16-33.12 149.32-29.99L149.32-29.99L149.32-29.99Q148.48-26.85 147.44-23.61L147.44-23.61L147.44-23.61Q146.39-20.36 145.64-17.17L145.64-17.17L145.64-17.17Q145.17-15.14 144.91-12.93L144.91-12.93L144.91-12.93Q144.65-10.73 144.74-8.50L144.74-8.50L144.74-8.50Q144.83-6.26 145.29-4.15L145.29-4.15L145.29-4.15Q145.75-2.03 146.68-0.23" fill="#0055a5" stroke="none" stroke-width="none" transform="translate(-72.07720947265625,14.908509586879184)" style="fill: rgb(189, 160, 178); animation-play-state: running; animation-delay: 0s;"></path></g><g class="path" style="transform: matrix(0.01, 0, 0, 0.01, 0, 0); transform-origin: 75.155785px 10.09351px; animation: 1s linear 0.212143s forwards bounce-in-db708eb3-b5ce-42dd-80ae-79e8669927cb;"><path d="M147.32-4.12L147.32-4.12L147.32-4.12Q147.61-2.26 148.48-0.23L148.48-0.23L148.48-0.23Q148.54-0.12 148.57 0.06L148.57 0.06L148.57 0.06Q148.60 0.23 148.48 0.23L148.48 0.23L148.48 0.23Q148.36 0.23 148.13 0.12L148.13 0.12L148.13 0.12Q148.02 0.06 147.96-0.06L147.96-0.06L147.96-0.06Q147.20-0.93 146.77-1.68L146.77-1.68L146.77-1.68Q146.33-2.44 146.04-4.12L146.04-4.12L146.04-4.12Q145.93-4.76 145.90-5.74L145.90-5.74L145.90-5.74Q145.87-6.73 145.93-7.66L145.93-7.66L145.93-7.66Q145.99-8.58 146.13-9.22L146.13-9.22L146.13-9.22Q146.28-9.86 146.51-9.86L146.51-9.86L146.51-9.86Q146.57-9.86 146.65-9.57L146.65-9.57L146.65-9.57Q146.74-9.28 146.80-8.90L146.80-8.90L146.80-8.90Q146.86-8.53 146.89-8.15L146.89-8.15L146.89-8.15Q146.91-7.77 146.91-7.66L146.91-7.66L146.91-7.66Q147.03-6.67 147.09-5.80L147.09-5.80L147.09-5.80Q147.15-4.93 147.32-4.12" fill="#0055a5" stroke="none" stroke-width="none" transform="translate(-72.07720947265625,14.908509586879184)" style="fill: rgb(206, 100, 166); animation-play-state: running; animation-delay: 0s;"></path></g></g>
</g>
</g>
<style id="bounce-in-db708eb3-b5ce-42dd-80ae-79e8669927cb" data-anikit="">@keyframes bounce-in-db708eb3-b5ce-42dd-80ae-79e8669927cb
{
  0% {
    animation-timing-function: cubic-bezier(0.0383,0.3388,0.0421,0.6652);
    transform: matrix(0.01,0,0,0.01,0,0);
    opacity: 1;
  }
  4.7% {
    animation-timing-function: cubic-bezier(0.3296,0.3336,0.5772,0.6672);
    transform: matrix(0.556,0,0,0.556,0,0);
    opacity: 1;
  }
  8.4% {
    animation-timing-function: cubic-bezier(0.0781,0.1617,0.0874,0.9301);
    transform: matrix(0.979,0,0,0.979,0,0);
    opacity: 1;
  }
  12.4% {
    animation-timing-function: cubic-bezier(0.8341,0.1496,0.8634,0.7673);
    transform: matrix(1.153,0,0,1.153,0,0);
    opacity: 1;
  }
  16.3% {
    animation-timing-function: cubic-bezier(0.3264,0.3332,0.5758,0.6695);
    transform: matrix(1.008,0,0,1.008,0,0);
    opacity: 1;
  }
  21.2% {
    animation-timing-function: cubic-bezier(0.0921,0.1883,0.3277,1);
    transform: matrix(0.704,0,0,0.704,0,0);
    opacity: 1;
  }
  24.5% {
    animation-timing-function: cubic-bezier(0.6905,0.0944,0.8759,0.7624);
    transform: matrix(0.626,0,0,0.626,0,0);
    opacity: 1;
  }
  27.7% {
    animation-timing-function: cubic-bezier(0.3688,0.332,0.624,0.6684);
    transform: matrix(0.704,0,0,0.704,0,0);
    opacity: 1;
  }
  32.6% {
    animation-timing-function: cubic-bezier(0.1368,0.2364,0.2451,0.9049);
    transform: matrix(0.958,0,0,0.958,0,0);
    opacity: 1;
  }
  37.4% {
    animation-timing-function: cubic-bezier(0.5936,0.0846,0.3495,1);
    transform: matrix(1.085,0,0,1.085,0,0);
    opacity: 1;
  }
  49.5% {
    animation-timing-function: cubic-bezier(0.5522,0.0981,0.3807,1);
    transform: matrix(0.802,0,0,0.802,0,0);
    opacity: 1;
  }
  62.4% {
    animation-timing-function: cubic-bezier(0.4497,0.1349,0.4911,1);
    transform: matrix(1.044,0,0,1.044,0,0);
    opacity: 1;
  }
  74.1% {
    animation-timing-function: cubic-bezier(0.429,0,0.5239,1);
    transform: matrix(0.914,0,0,0.914,0,0);
    opacity: 1;
  }
  87% {
    animation-timing-function: cubic-bezier(0.3501,0,0.6422,1);
    transform: matrix(1.013,0,0,1.013,0,0);
    opacity: 1;
  }
  95.8% {
    animation-timing-function: cubic-bezier(0.3653,0,0.6776,1);
    transform: matrix(0.992,0,0,0.992,0,0);
    opacity: 1;
  }
  100% {
    transform: matrix(1,0,0,1,0,0);
    opacity: 1;
  }
}</style></svg>