<svg xmlns="http://www.w3.org/2000/svg" style="margin:auto;background:0 0;display:block;shape-rendering:auto" width="289" height="180" preserveAspectRatio="xMidYMid"><g style="transform-origin:144.5px 90px;transform:scale(1)"><g style="transform:matrix(1,0,0,1,0,0);transform-origin:-106.379979px -18.690895px;animation:1s linear -.644286s infinite forwards bounce-3c330417-32e6-452f-bc30-b486e5f258a7"><path d="M41.85 69.65q.48-1.76.64-4.28.16-2.52 0-5.04t-.76-4.76q-.6-2.24-1.8-3.44-.48-.48-.76-.32-.28.16.12.8.8 1.44.76 4.44-.04 3-.52 6.52-.48 3.52-1.28 7.04t-1.6 6.16q-.4 1.12-.8 2.8-.4 1.68-.84 3.4-.44 1.72-.76 3.36t-.48 2.76q0 .24-.08.92t.16.84q.16 0 .48-.68.32-.68.4-.84 1.92-4.48 3.92-9.56t3.2-10.12" fill="#d2d2cb" stroke-width="none" style="fill:#d2d2cb"/></g><g style="transform:matrix(1,0,0,1,0,0);transform-origin:-104.214976px -7.74362px;animation:1s linear -.628571s infinite forwards bounce-3c330417-32e6-452f-bc30-b486e5f258a7"><path d="M40.01 89.17q.4-1.44 1.12-3.76.72-2.32 1.44-5.08.72-2.76 1.4-5.76.68-3 1.04-5.84t.24-5.24q-.12-2.4-.84-3.92-.08-.24-.32-.48t-.24.4q.16 5.12-1.04 10.24t-2.56 9.28q-1.04 3.28-2.12 6.56t-1.84 6.52q-.76 3.24-.96 6.36-.2 3.12.6 6 .32 1.04.56 1.04.24-.08.24-1.04 0-1.44.28-3.24.28-1.8.76-3.8.48-2 1.04-4.12t1.2-4.12" fill="#d2d2cb" stroke-width="none" style="fill:#4d695d"/></g><g style="transform:matrix(1,0,0,1,0,0);transform-origin:-111.122235px -9.275339px;animation:1s linear -.612857s infinite forwards bounce-3c330417-32e6-452f-bc30-b486e5f258a7"><path d="M38.49 111.09q-2.8-.32-5-2.8t-2.92-6.08q-.72-3.44-.36-7t1.24-6.68q1.28-4.8 3.04-9.88 1.76-5.08 3-10.04 1.24-4.96 1.4-9.56.16-4.6-1.6-8.44-.16-.08-.24-.36-.08-.28-.24-.2-.24 0-.08.56.64 3.68.08 7.96-.56 4.28-1.8 8.88-1.24 4.6-2.8 9.48-1.56 4.88-2.92 9.76-1.04 3.6-1.4 7.64-.36 4.04.52 8.12.48 2.08 1.48 3.76 1 1.68 2.36 2.84 1.36 1.16 2.96 1.8 1.6.64 3.28.56h.24q.08 0 .24-.08 0-.24-.48-.24" fill="#d2d2cb" stroke-width="none" style="fill:#83a79d"/></g><g style="transform:matrix(1,0,0,1,0,0);transform-origin:-108.070783px 14.809107px;animation:1s linear -.597143s infinite forwards bounce-3c330417-32e6-452f-bc30-b486e5f258a7"><path d="M36.09 107.09q-1.44-1.68-2.32-4.32-.08-.24-.24-.76l-.32-1.04q-.16-.52-.32-.96-.16-.44-.24-.44-.32 0-.32 1.04t.24 2.4q.24 1.36.72 2.76.48 1.4 1.12 2.2 1.28 1.44 2.6 1.76 1.32.32 2.68.32.48 0 .76-.28t-.44-.44q-2.32-.24-3.92-2.24" fill="#d2d2cb" stroke-width="none" style="fill:#dae8e5"/></g><g style="transform:matrix(1,0,0,1,0,0);transform-origin:-86.985215px 2.089108px;animation:1s linear -.581429s infinite forwards bounce-3c330417-32e6-452f-bc30-b486e5f258a7"><path d="M69.29 89.17q.24-2.16.08-4.56-.16-2.4-1-4.44-.84-2.04-2.56-3.4-1.72-1.36-4.52-1.36-3.76 0-6.56 2.04t-4.8 5.04q-2 3-3.12 6.4-1.12 3.4-1.44 6.2-.48 3.84-.12 6.64t1.32 4.6q.96 1.8 2.44 2.68 1.48.88 3.24.88 2.48.08 5.24-1.4 2.76-1.48 5.16-4.16 2.4-2.68 4.2-6.56 1.8-3.88 2.44-8.6zm-25.76 5.52q.32-3.2 1.6-7.04t3.56-7.12q2.28-3.28 5.48-5.48 3.2-2.2 7.44-2.2 3.2 0 5.28 1.52t3.2 3.88q1.12 2.36 1.44 5.12.32 2.76 0 5.24-.72 5.76-2.8 10t-4.88 7.08q-2.8 2.84-5.92 4.24-3.12 1.4-6 1.4-2.16 0-3.88-.96-1.72-.96-2.88-3t-1.6-5.2q-.44-3.16-.04-7.48zm8.96 11.28q-.4 0-.8-.28t-.64-.68q-.24-.4-.32-.8-.08-.4.32-.56.24-.08.64.56t.88.64q.8 0 1.88-1.04 1.08-1.04 2.08-2.44t1.76-2.76q.76-1.36 1.08-2 .32-.64.64-1.64.32-1 .6-2.04.28-1.04.48-2.04.2-1 .28-1.72.4-3.6-.16-5.56-.56-1.96-1.84-1.96-.96 0-2 .6t-1.96 1.56q-.92.96-1.64 2.12-.72 1.16-1.04 2.36-.4 1.36-.56 1.36-.24 0-.24-1.36.24-1.52 1.04-3t2-2.64q1.2-1.16 2.64-1.92 1.44-.76 2.96-.76t2.28 1.08q.76 1.08 1.08 2.64.32 1.56.28 3.2-.04 1.64-.2 2.6-.32 2.16-1 4.2-.68 2.04-1.64 4.12-.48.96-1.44 2.36t-2.2 2.68q-1.24 1.28-2.64 2.2-1.4.92-2.6.92zm2.56 1.52q.08.48-.76.8-.84.32-1.72.32-2.48-.08-3.8-1.6-1.32-1.52-1.84-3.6t-.48-4.32q.04-2.24.2-3.76.32-2.64 1.28-5.92t2.72-6.16q1.76-2.88 4.32-4.84 2.56-1.96 6.08-1.96 2.32 0 3.72 1.2 1.4 1.2 2.08 2.96.68 1.76.8 3.8t-.12 3.72q-.16 1.84-.56 3.36-.4 1.52-1.12 3.36-.24.56-.64 1.28t-.88.64q-.24-.08-.12-.64t.32-1.4q.2-.84.44-1.76t.32-1.72q.16-1.36.2-3.4.04-2.04-.32-3.96t-1.32-3.28q-.96-1.36-2.88-1.36-2.8 0-5.16 1.8-2.36 1.8-4.12 4.4-1.76 2.6-2.84 5.44-1.08 2.84-1.32 5-.16 1.28-.08 3.2.08 1.92.6 3.8t1.72 3.24q1.2 1.36 3.28 1.44.64.08 1.24-.12t.76.04" fill="#d2d2cb" stroke-width="none" style="fill:#30b0e0"/></g><g style="transform:matrix(1,0,0,1,0,0);transform-origin:-43.379211px -5.480892px;animation:1s linear -.565714s infinite forwards bounce-3c330417-32e6-452f-bc30-b486e5f258a7"><path d="M104.01 83.17q-.64 3.2-2.16 6.4t-2.88 6q-.08.16-.36.56-.28.4-.44.4-.24-.08-.24-.52v-.6q.08-.72.28-1.72t.36-2.08.36-2.08q.2-1 .44-1.8.72-2.72 1.2-4.68.48-1.96.72-3.56t.28-3.04q.04-1.44-.2-3.12-.08-.64.08-.8.16-.08.4.16.24.24.4.48 1.36 2.16 1.84 4.76.48 2.6-.08 5.24" fill="#d2d2cb" stroke-width="none" style="fill:#a1cde5"/></g><g style="transform:matrix(1,0,0,1,0,0);transform-origin:-41.109985px 2.209107px;animation:1s linear -.55s infinite forwards bounce-3c330417-32e6-452f-bc30-b486e5f258a7"><path d="M105.61 77.33l.32.48q1.04 1.52 1.04 4t-.48 5.08q-.48 2.6-1.2 5t-1.04 3.84q-.64 2.8-1.76 5.6t-1.92 4.96q-.08.24-.24.52-.16.28-.32.28t-.16-.32v-.56q-.24-4.4.96-8.6 1.2-4.2 2.56-8.52.8-2.64 1.52-5.4.72-2.76.64-6.04 0-.32.08-.32" fill="#d2d2cb" stroke-width="none" style="fill:#bfdeee"/></g><g style="transform:matrix(1,0,0,1,0,0);transform-origin:-57.851713px 1.885033px;animation:1s linear -.534286s infinite forwards bounce-3c330417-32e6-452f-bc30-b486e5f258a7"><path d="M98.41 76.45q-4.88 2-8.28 5.72-3.4 3.72-5.24 8.36-.8 2.08-1.2 3.72-.4 1.64-.64 3.56-.08.4.24.8t.64 0q1.44-1.76 3.68-4.48 2.24-2.72 4.48-5.76 2.24-3.04 4.04-6.16 1.8-3.12 2.28-5.76zm-5.36 27.12q-1.2 1.68-2.32 3.12-1.12 1.44-2.48 2.52-1.36 1.08-3.04 1.72-1.68.64-3.84.72-3.6.16-5.48-1.84-1.88-2-2.6-4.88-.72-2.88-.52-5.96.2-3.08.84-5.08.88-2.8 2.12-5.32 1.24-2.52 2.64-4.56 1.4-2.04 2.88-3.52t2.92-2.28q.08 0 .36-.16.28-.16.28.08.08 0-.08.24t-.32.4q-4.16 4.32-6.6 9.76-2.44 5.44-2.76 11.2-.08 1.44.12 3.12.2 1.68.8 3.16.6 1.48 1.72 2.48t3.04 1q1.52 0 2.8-.52 1.28-.52 2.4-1.36 1.12-.84 2.04-1.84.92-1 1.64-1.88 1.6-2 2.96-4.16 0-1.6.2-3.12t.6-3.04q.24-1.12.44-1.8.2-.68.4-1.28t.4-1.28q.2-.68.6-1.8-1.28 2.24-2.52 4.2t-2.64 3.76q-1.4 1.8-2.88 3.52t-3.24 3.48q-1.36 1.36-2.24.88-.88-.48-1.04-2.24-.16-2.72.28-5.28.44-2.56 1.56-5.36 1.04-2.56 2.6-4.96t3.6-4.36q2.04-1.96 4.52-3.36 2.48-1.4 5.28-1.88.16-.88.28-1.52.12-.64.2-1.28l.16-.88q.16-.08.36.16.2.24.36.64.96 2.64.64 5.28-.32 2.64-1.16 5.36-.84 2.72-1.96 5.56-1.12 2.84-1.84 5.72-.96 4.08-.52 8.44.44 4.36 3.4 7.88l.24.32q-.08.08-.48-.16-2.32-1.44-3.48-3.48-1.16-2.04-1.64-4.28" fill="#d2d2cb" stroke-width="none" style="fill:#bc252d"/></g><g style="transform:matrix(1,0,0,1,0,0);transform-origin:-58.343315px 1.437679px;animation:1s linear -.518571s infinite forwards bounce-3c330417-32e6-452f-bc30-b486e5f258a7"><path d="M95.85 75.25q.16.16-.04.24-.2.08-.84.24-1.04.32-2.52 1.2-1.48.88-3.12 2.24-1.64 1.36-3.24 3.16-1.6 1.8-2.8 3.88-1.2 2.16-2.04 4.24-.84 2.08-1.36 3.8-.52 1.72-.76 2.96t-.24 1.72v2.52q0 1.32.32 2.36.32 1.04 1.12 1.6t2.4.32q.08 0 .4-.12l.64-.24q.32-.12.6-.2.28-.08.36-.08.08.16-.12.4-.2.24-.52.52t-.6.52q-.28.24-.36.32-2 1.2-3.36.72-1.36-.48-2.12-1.8t-1.04-3.12q-.28-1.8-.2-3.24.16-2.8.88-5.56t1.84-5.56q.88-2.16 2.64-4.44 1.76-2.28 3.96-4.2 2.2-1.92 4.6-3.16 2.4-1.24 4.64-1.32.8 0 .88.08" fill="#d2d2cb" stroke-width="none" style="fill:#d2d2cb"/></g><g style="transform:matrix(1,0,0,1,0,0);transform-origin:-45.756649px 16.809107px;animation:1s linear -.502857s infinite forwards bounce-3c330417-32e6-452f-bc30-b486e5f258a7"><path d="M100.57 111.17q.16.24.08.32-.24 0-.64-.16-.24-.16-1.28-.96-1.04-.8-1.52-2.56-.16-.64-.28-1.64-.12-1-.12-1.88 0-.88.12-1.52t.36-.64q.24 0 .52.96t.36 1.2q.24 1.12.44 1.96.2.84.44 1.56.32.88.84 2t.68 1.36" fill="#d2d2cb" stroke-width="none" style="fill:#4d695d"/></g><g style="transform:matrix(1,0,0,1,0,0);transform-origin:-5.481979px -18.174894px;animation:1s linear -.487143s infinite forwards bounce-3c330417-32e6-452f-bc30-b486e5f258a7"><path d="M142.65 69.65q-1.12 5.04-2.92 10.04-1.8 5-3.56 9.48-.08.4-.4 1.04t-.72.48q-.08 0-.08-.72t.08-.96q.16-1.12.44-2.68t.64-3.16q.36-1.6.76-3.16t.72-2.68q.24-.48.6-2.16.36-1.68.76-3.96.4-2.28.72-4.92.32-2.64.4-5.08.08-2.44-.04-4.44-.12-2-.68-2.96-.4-.8-.16-.88.32 0 .72.4 1.2 1.2 1.88 3.24.68 2.04 1 4.4.32 2.36.24 4.68-.08 2.32-.4 4" fill="#d2d2cb" stroke-width="none" style="fill:#83a79d"/></g><g style="transform:matrix(1,0,0,1,0,0);transform-origin:-3.125813px -7.088036px;animation:1s linear -.471429s infinite forwards bounce-3c330417-32e6-452f-bc30-b486e5f258a7"><path d="M144.73 60.77q.8 1.6.96 3.92.16 2.32-.08 5t-.76 5.52q-.52 2.84-1.16 5.44-.64 2.6-1.24 4.84-.6 2.24-1 3.68-1.12 4.16-2.04 8.28-.92 4.12-.92 7 0 1.04-.08 1.04-.16.16-.36-.24-.2-.4-.36-.8-.8-2.88-.68-5.96t.76-6.32q.64-3.24 1.64-6.56 1-3.32 1.96-6.6 1.12-4.16 2.24-8.68t.72-9.56q0-.4-.04-.44-.04-.04.04-.04.16 0 .4.48" fill="#d2d2cb" stroke-width="none" style="fill:#dae8e5"/></g><g style="transform:matrix(1,0,0,1,0,0);transform-origin:-20.039978px -8.560894px;animation:1s linear -.455714s infinite forwards bounce-3c330417-32e6-452f-bc30-b486e5f258a7"><path d="M133.21 77.17q-4.8 2.08-8.2 5.8-3.4 3.72-5.16 8.28-.72 1.92-1.16 3.64-.44 1.72-.6 3.64-.08.96.48.72.56-.24.96-.72.96-1.2 1.76-2.36t1.64-2.4q.84-1.24 1.76-2.64.92-1.4 2.04-3 1.2-1.68 2.28-3.32 1.08-1.64 1.92-3.08.84-1.44 1.44-2.64.6-1.2.84-1.92zm-1.76 6.32q-2.88 5.6-5.92 10.52t-6.96 9q-2.48 2.64-2.96-.8-.16-2.72.4-5.68.56-2.96 1.68-5.6 1.04-2.56 2.56-4.96t3.52-4.4q2-2 4.44-3.36 2.44-1.36 5.24-1.84.96-3.36 1.84-6.6.88-3.24 1.44-6.36.56-3.12.6-6.04.04-2.92-.52-5.56-.16-.48-.08-.48.16-.08.28.16.12.24.12.32 1.92 3.84 1.88 8.24-.04 4.4-1.08 9.12-1.04 4.72-2.6 9.6t-2.68 9.76q-.72 3.12-.84 6.68-.12 3.56.68 7 .8 3.6 2.96 6.12t4.96 2.76q.64.08.64.24 0 .16-.2.2-.2.04-.36.04-1.68 0-3.32-.64t-3.08-1.84q-1.44-1.2-2.52-2.84t-1.56-3.72q-.16-.64-.16-1.04-2.24 4.24-5.4 6.84-3.16 2.6-7.96 3-3.6.24-5.48-1.68-1.88-1.92-2.6-4.64-.72-2.72-.48-5.72.24-3 .88-4.92 1.84-5.52 4.64-9.72 2.8-4.2 5.6-5.88.16-.16.48-.28.32-.12.4-.04.16.08-.08.32l-.32.32q-4.32 4.32-6.68 9.88-2.36 5.56-2.52 11.32-.08 1.44.08 3.12.16 1.68.76 3.16.6 1.48 1.72 2.48t3.04 1q2.72.08 5.16-1.64t4.24-4.24q1.8-2.52 2.92-5.4 1.12-2.88 1.28-5.28-.56.64-.96 1.32-.4.68-1.04 1.48-.08.16-.48.52-.4.36-.64.28-.16-.08.16-.92.32-.84.8-1.84.48-1 .96-1.92.48-.92.64-1.24.88-1.84 1.36-3.68.48-1.84 1.12-4" fill="#d2d2cb" stroke-width="none" style="fill:#30b0e0"/></g><g style="transform:matrix(1,0,0,1,0,0);transform-origin:-6.232479px 14.829108px;animation:1s linear -.44s infinite forwards bounce-3c330417-32e6-452f-bc30-b486e5f258a7"><path d="M142.57 109.49q0 .16-.4.32-.24.08-.4.08-1.52.16-2.84-.16-1.32-.32-2.68-1.68-.72-.72-1.24-2.16-.52-1.44-.8-2.8-.28-1.36-.24-2.4.04-1.04.36-.96.08-.08.28.32t.36.92l.32 1.04q.16.52.24.76.4 1.28.96 2.32.56 1.04 1.36 1.84 1.92 2.24 4.16 2.32.16 0 .36.04.2.04.2.2" fill="#d2d2cb" stroke-width="none" style="fill:#a1cde5"/></g><g style="transform:matrix(1,0,0,1,0,0);transform-origin:-23.213318px 1.764662px;animation:1s linear -.424286s infinite forwards bounce-3c330417-32e6-452f-bc30-b486e5f258a7"><path d="M130.97 75.73q0 .08-.12.16t-.6.24q-1.04.4-2.56 1.32t-3.2 2.28q-1.68 1.36-3.32 3.16t-2.84 3.88q-1.2 2.16-2.04 4.2-.84 2.04-1.32 3.76-.48 1.72-.68 2.92-.2 1.2-.28 1.6-.08 1.36-.08 2.68t.36 2.4q.36 1.08 1.16 1.64.8.56 2.4.32.16 0 1-.36t1-.28q.08.08-.08.32t-.48.52q-.32.28-.6.48-.28.2-.36.28-.72.4-1.6.6-.88.2-1.72.04t-1.56-.68q-.72-.52-1.04-1.48-.88-2.96-.8-5.76.16-2.8.72-5.56.56-2.76 1.92-5.56.8-2.16 2.52-4.48 1.72-2.32 3.96-4.24 2.24-1.92 4.68-3.2 2.44-1.28 4.6-1.36h.64q.32 0 .32.16" fill="#d2d2cb" stroke-width="none" style="fill:#bfdeee"/></g><g style="transform:matrix(1,0,0,1,0,0);transform-origin:10.532883px -4.070892px;animation:1s linear -.408571s infinite forwards bounce-3c330417-32e6-452f-bc30-b486e5f258a7"><path d="M157.85 84.93q.24-1.04.28-2.4.04-1.36-.2-2.8-.24-1.44-.84-2.76-.6-1.32-1.56-2.28-.48-.32-.56-.32-.32 0 0 .48.48 1.04.36 3.24t-.52 4.56q-.4 2.36-.84 4.24-.44 1.88-.52 2.28-.56 1.44-1 3.6-.44 2.16-.44 3.52-.08.16-.08.64t.24.56q.08 0 .32-.4t.4-.56q1.44-2.56 2.76-5.6 1.32-3.04 2.2-6" fill="#d2d2cb" stroke-width="none" style="fill:#bc252d"/></g><g style="transform:matrix(1,0,0,1,0,0);transform-origin:12.820015px 3.449107px;animation:1s linear -.392857s infinite forwards bounce-3c330417-32e6-452f-bc30-b486e5f258a7"><path d="M158.17 97.01q.32-1.44 1.04-3.72.72-2.28 1.2-4.72t.48-4.8q0-2.36-.96-3.88-.32-.32-.48-.32-.16 0-.08.32 0 3.04-.68 5.64-.68 2.6-1.48 5.08-1.36 4.08-2.48 7.96-1.12 3.88-.96 7.96 0 .24.04.52t.28.28q.16 0 .24-.16l.24-.48q.8-1.92 1.84-4.52 1.04-2.6 1.76-5.16" fill="#d2d2cb" stroke-width="none" style="fill:#d2d2cb"/></g><g style="transform:matrix(1,0,0,1,0,0);transform-origin:5.805752px 2.231329px;animation:1s linear -.377143s infinite forwards bounce-3c330417-32e6-452f-bc30-b486e5f258a7"><path d="M152.49 111.33q-1.52-1.6-2.32-3.56-.8-1.96-1.12-4-.32-2.04-.16-4.12t.64-3.92q.72-2.88 1.84-5.76t1.92-5.72q.8-2.84.92-5.6t-1.16-5.4q-.24-.4-.32-.4-.08 0-.08.12t.08.2q.24 2.4-.32 4.96t-1.44 5.24q-.88 2.68-1.96 5.52-1.08 2.84-1.8 5.8-.56 2.16-.76 4.4-.2 2.24.28 4.44.48 2.2 1.76 4.2t3.68 3.68q.16.16.4.2.24.04-.08-.28" fill="#d2d2cb" stroke-width="none" style="fill:#4d695d"/></g><g style="transform:matrix(1,0,0,1,0,0);transform-origin:8.416683px 17.169107px;animation:1s linear -.361429s infinite forwards bounce-3c330417-32e6-452f-bc30-b486e5f258a7"><path d="M153.13 108.29q-.24-.64-.52-1.6-.28-.96-.44-1.84-.16-.32-.4-1.2-.24-.88-.4-.88-.32 0-.44.56t-.12 1.4q0 .84.12 1.76t.36 1.56q.48 1.6 1.16 2.24.68.64 1.8 1.04.48.24.72.24.08 0 .04-.12t-.12-.12q-.56-.64-1-1.36-.44-.72-.76-1.68" fill="#d2d2cb" stroke-width="none" style="fill:#83a79d"/></g><g style="transform:matrix(1,0,0,1,0,0);transform-origin:16.390022px -28.590895px;animation:1s linear -.345714s infinite forwards bounce-3c330417-32e6-452f-bc30-b486e5f258a7"><path d="M159.37 66.93q-.4 0-1.24-.12t-.84-.76q0-.24.72-.6t1.6-1.04q.88-.68 1.6-1.76.72-1.08.72-2.76 0-2.08-.8-3.12-.16-.24-.4-.52-.24-.28-.16-.36.16 0 .36.12.2.12.28.2 1.6.88 2.44 2.28.84 1.4.84 2.68 0 2.56-1.2 4.16t-3.92 1.6" fill="#d2d2cb" stroke-width="none" style="fill:#dae8e5"/></g><g style="transform:matrix(1,0,0,1,0,0);transform-origin:13.350014px -30.419821px;animation:1s linear -.33s infinite forwards bounce-3c330417-32e6-452f-bc30-b486e5f258a7"><path d="M156.41 63.73q-.96.4-.96-.48 0-.64.48-1.24t.92-1.32q.44-.72.6-1.64.16-.92-.48-2.28-.16-.4-.56-.88t-.24-.56q.16-.08.68.12t.68.28q1.36.64 2.04 1.92.68 1.28.68 2.24 0 1.52-1.24 2.52t-2.6 1.32" fill="#d2d2cb" stroke-width="none" style="fill:#30b0e0"/></g><g style="transform:matrix(1,0,0,1,0,0);transform-origin:10.550026px -30.630892px;animation:1s linear -.314286s infinite forwards bounce-3c330417-32e6-452f-bc30-b486e5f258a7"><path d="M154.09 59.41q0-.4.24-.92t.8-.52q.4 0 .64.52t.24.92q0 .32-.24.84t-.64.52q-.56 0-.8-.48t-.24-.88" fill="#d2d2cb" stroke-width="none" style="fill:#a1cde5"/></g><g style="transform:matrix(1,0,0,1,0,0);transform-origin:37.019875px 2.357107px;animation:1s linear -.298571s infinite forwards bounce-3c330417-32e6-452f-bc30-b486e5f258a7"><path d="M189.37 82.61q.16 2.48-.32 4.76t-1.2 4.2q-.16.4-.52.88t-.68.32q-.16 0-.08-.56t.08-.8q.08-.88.12-2.2.04-1.32.04-2.68t-.12-2.6q-.12-1.24-.36-2.12-.72-2.56-2.28-2.84-1.56-.28-3.16.84t-3.04 3.12q-1.44 2-1.92 3.92.48-.72 1.24-1.72t1.72-1.92q.96-.92 2.04-1.52t2.04-.52q1.04.08 1.48 1.12.44 1.04.52 2.56.08 1.52-.16 3.28-.24 1.76-.56 3.28-.56 2.48-.96 5.12-.4 2.64-.28 5.16t.88 4.88q.76 2.36 2.6 4.36.16.24.24.4.08.16-.4-.08-2.08-1.2-3.32-2.8-1.24-1.6-1.88-3.44-.64-1.84-.76-3.84-.12-2 .04-4 .32-2.88.96-5.04.64-2.16.96-4.88.16-1.68-.24-2.2-.4-.52-.96-.6-.8-.08-1.8.84-1 .92-2.08 2.6-1.08 1.68-2.08 3.92t-1.72 4.72q-.64 2.48-1.56 5.16t-1.72 4.6q-.32.72-.48.72-.16 0-.28-.32-.12-.32-.12-.48-.32-4 .72-7.92t2.4-7.92q.8-2.48 1.44-4.4.64-1.92.64-4.88 0-1.28.64-2.68.64-1.4 1.88-2.56 1.24-1.16 3.08-1.88t4.16-.64q3.84.08 5.92 1.8t2.92 4.36q.84 2.64.72 5.72-.12 3.08-.68 5.96-.48 2.16-1.12 3.92-.64 1.76-1.36 3.28-.72 1.52-1.36 2.88-.64 1.36-1.04 2.72-.08.24-.16.52t-.24.28q-.16 0-.24-.32-.08-.32-.08-.72-.16-2.72.56-5.24.72-2.52 1.52-5.2t1.2-5.64q.4-2.96-.32-6.56-.72-3.84-3.52-5.12-2.8-1.28-6.4.16-.48.24-1.28.72t-1.56 1.28q-.76.8-1.4 1.88-.64 1.08-.8 2.36.96-1.44 2.24-2.72 1.28-1.28 2.72-2.04 1.44-.76 2.92-.92 1.48-.16 2.92.56 1.68.88 2.32 2.44.64 1.56.72 2.92" fill="#d2d2cb" stroke-width="none" style="fill:#bfdeee"/></g><g style="transform:matrix(1,0,0,1,0,0);transform-origin:25.772522px -4.064739px;animation:1s linear -.282857s infinite forwards bounce-3c330417-32e6-452f-bc30-b486e5f258a7"><path d="M173.05 84.77q-.88 3.04-2.36 6t-2.44 5.68q-.08.16-.28.6-.2.44-.52.36-.16-.08-.2-.52-.04-.44-.04-.68 0-1.28.44-3.4t.92-3.48q.16-.48.6-2.44.44-1.96.8-4.28.36-2.32.48-4.48.12-2.16-.44-3.12-.32-.56 0-.56.24 0 .64.4.96.88 1.56 2.16.6 1.28.88 2.68.28 1.4.24 2.76-.04 1.36-.28 2.32" fill="#d2d2cb" stroke-width="none" style="fill:#bc252d"/></g><g style="transform:matrix(1,0,0,1,0,0);transform-origin:42.387352px 15.062441px;animation:1s linear -.267143s infinite forwards bounce-3c330417-32e6-452f-bc30-b486e5f258a7"><path d="M189.37 111.25q-.16.08-.64-.08-.24-.08-.4-.16-1.12-.72-1.92-1.64-.8-.92-1.6-3.16-.24-.8-.36-2.04t-.04-2.44q.08-1.2.28-2.04.2-.84.6-.84.16 0 .36.92.2.92.4 2.12.2 1.2.44 2.4t.4 1.76l.8 2.4q.4 1.2 1.28 2.08.16.16.32.44t.08.28" fill="#d2d2cb" stroke-width="none" style="fill:#d2d2cb"/></g><g style="transform:matrix(1,0,0,1,0,0);transform-origin:21.080132px 2.374821px;animation:1s linear -.251429s infinite forwards bounce-3c330417-32e6-452f-bc30-b486e5f258a7"><path d="M167.77 111.41q-2.48-1.68-3.8-3.68-1.32-2-1.8-4.16t-.36-4.4q.12-2.24.6-4.4.64-2.88 1.64-5.72 1-2.84 1.92-5.52.92-2.68 1.44-5.24.52-2.56.12-4.88 0-.32.08-.32.16 0 .4.4 1.44 2.56 1.36 5.28-.08 2.72-.88 5.56-.8 2.84-1.96 5.76t-1.8 5.88q-.4 1.84-.52 3.88t.28 4.04q.4 2 1.32 3.92t2.52 3.44q.32.16.16.32t-.36.04q-.2-.12-.36-.2" fill="#d2d2cb" stroke-width="none" style="fill:#4d695d"/></g><g style="transform:matrix(1,0,0,1,0,0);transform-origin:24.043343px 17.231964px;animation:1s linear -.235714s infinite forwards bounce-3c330417-32e6-452f-bc30-b486e5f258a7"><path d="M170.81 111.73q-.24.16-.64-.24-.88-.64-1.72-1.36-.84-.72-1.64-2.32-.32-.56-.48-1.44-.16-.88-.16-1.72t.12-1.4q.12-.56.36-.56.32.08.52.88t.36 1.04q.32.88.56 1.64.24.76.56 1.48.48 1.12.96 1.92.48.8 1.12 1.6.08.08.16.24.08.16-.08.24" fill="#d2d2cb" stroke-width="none" style="fill:#83a79d"/></g><g style="transform:matrix(1,0,0,1,0,0);transform-origin:76.190018px 5.601109px;animation:1s linear -.22s infinite forwards bounce-3c330417-32e6-452f-bc30-b486e5f258a7"><path d="M224.89 75.81v-.24q-.16-.08-.36.24-.2.32-.36.48-1.2 1.52-2.16 3.76-.96 2.24-1.64 4.72-.68 2.48-1.12 4.96-.44 2.48-.76 4.4-.4 2.72-.68 5.16t-.52 4.76q-.24 2.32-.4 4.68-.16 2.36-.4 4.84.08.08.08.44v1.36q0 .28.16.28.08 0 .24-.28.16-.28.32-.6.16-.32.24-.64l.08-.32q.88-1.92 1.52-4.48.64-2.56 1.04-5.12.08-.64.32-2.64t.56-4.64q.32-2.64.76-5.72.44-3.08.88-5.92t.96-5.16q.52-2.32 1-3.52.08-.32.16-.48.08-.16.08-.32" fill="#d2d2cb" stroke-width="none" style="fill:#dae8e5"/></g><g style="transform:matrix(1,0,0,1,0,0);transform-origin:67.812241px -.882688px;animation:1s linear -.204286s infinite forwards bounce-3c330417-32e6-452f-bc30-b486e5f258a7"><path d="M222.25 75.25q0-.08-.56-.08-.24 0-.48.08-3.04.32-5.6 1.64-2.56 1.32-4.68 3.28-2.12 1.96-3.76 4.44-1.64 2.48-2.68 5.12-1.12 2.72-1.68 5.76-.56 3.04-.4 5.68.24 3.44 3.04.64 2.4-2.4 4.52-5.2 2.12-2.8 4-5.92t3.56-6.36q1.68-3.24 3.36-6.52.32-.64.24-.64-.16-.16-.36 0-.2.16-.2.32-4.32 5.52-8.04 10.56-3.72 5.04-6.84 10-.4.4-.52.24-.12-.16-.04-.56.16-1.84.6-3.8.44-1.96 1.24-3.96 1.92-4.88 5.52-8.64 3.6-3.76 9.04-5.6.72-.32.72-.48" fill="#d2d2cb" stroke-width="none" style="fill:#30b0e0"/></g><g style="transform:matrix(1,0,0,1,0,0);transform-origin:63.618591px .729107px;animation:1s linear -.188571s infinite forwards bounce-3c330417-32e6-452f-bc30-b486e5f258a7"><path d="M217.93 74.69q-.08-.16-.36-.16h-.52q-2.24 0-4.68 1.28-2.44 1.28-4.68 3.24-2.24 1.96-4 4.32-1.76 2.36-2.64 4.52-1.12 2.88-1.88 5.56-.76 2.68-.84 5.4-.08 1.44.12 2.8.2 1.36.76 2.96.32.96 1.08 1.52t1.6.72q.84.16 1.72 0t1.52-.64q.08-.08.36-.32.28-.24.56-.52t.48-.52q.2-.24.12-.4-.08-.16-.76.2t-1.16.44q-1.68.32-2.52-.24-.84-.56-1.2-1.64-.36-1.08-.32-2.4.04-1.32.2-2.6 0-.48.2-1.68t.68-2.92q.48-1.72 1.32-3.8.84-2.08 2.04-4.16 1.2-2.08 2.84-3.84 1.64-1.76 3.32-3.12t3.24-2.24q1.56-.88 2.68-1.2.56-.16.64-.28.08-.12.08-.28" fill="#d2d2cb" stroke-width="none" style="fill:#a1cde5"/></g><g style="transform:matrix(1,0,0,1,0,0);transform-origin:67.344307px 13.990774px;animation:1s linear -.172857s infinite forwards bounce-3c330417-32e6-452f-bc30-b486e5f258a7"><path d="M227.61 74.13v-.32q-.24 0-.4.32-.08.16-.16.4-2.4 4.96-3.36 10.2-.96 5.24-1.44 10.68-.48 5.44-.96 10.96-.48 5.52-1.92 11.04-.48 1.76-.96 3.68-.48 1.92-1.28 3.76-.8 1.84-2.12 3.48t-3.56 2.76q-2.56 1.36-4.72 1.16-2.16-.2-4-1.16-1.84-.96-3.36-2.44-1.52-1.48-2.64-2.68-.16-.16-.32-.36-.16-.2-.24-.12-.16.08-.04.36.12.28.2.44 1.84 3.44 5.6 6 .88.64 2.16 1.12 1.28.48 2.76.68 1.48.2 3.04-.08t3-1.24q2.64-1.76 4.2-3.72 1.56-1.96 2.52-4t1.48-4.2q.52-2.16 1-4.24 1.36-5.44 1.88-10.84.52-5.4.84-10.68.32-5.28.8-10.44.48-5.16 1.84-10.04.16-.32.16-.48" fill="#d2d2cb" stroke-width="none" style="fill:#bfdeee"/></g><g style="transform:matrix(1,0,0,1,0,0);transform-origin:63.203522px 12.401834px;animation:1s linear -.157143s infinite forwards bounce-3c330417-32e6-452f-bc30-b486e5f258a7"><path d="M218.17 89.09q.4-1.68 1.08-3.48t1.08-3.56q0-.16.12-.56t.04-.4q-.16-.08-.48.4-.32.48-.32.56-1.12 1.84-2 3.88-.88 2.04-1.6 3.72-.16.4-.68 1.36-.52.96-1.04 2.04t-.88 2q-.36.92-.12 1.08.16 0 .48-.36.32-.36.48-.52.24-.4.56-.84.32-.44.64-.84-.48 2-.84 3.32-.36 1.32-.76 2.36-.4 1.04-.92 1.96-.52.92-1.4 2.12-.64.88-1.56 1.88-.92 1-2.08 1.84-1.16.84-2.52 1.36-1.36.52-2.88.52-1.92 0-3.04-1t-1.68-2.48q-.56-1.48-.72-3.16-.16-1.68-.08-3.12.32-5.76 2.68-11.24 2.36-5.48 6.6-9.8 0-.08.24-.32t.24-.32q-.16-.16-.4 0l-.32.16q-1.44.88-3 2.4t-2.96 3.56q-1.4 2.04-2.56 4.52-1.16 2.48-1.96 5.12-.4 1.36-.6 3.24-.2 1.88-.08 3.92.12 2.04.56 4.08.44 2.04 1.44 3.6t2.56 2.48q1.56.92 3.88.76 2.32-.16 3.72-.8 1.4-.64 2.28-1.36 1.12-.88 2-1.84.88-.96 1.76-1.84-.48 2.8-.92 4.76-.44 1.96-.84 3.72-.56 2.4-1.04 4.6-.48 2.2-1.04 3.88-.56 1.68-1.28 2.76-.72 1.08-1.68 1.24-1.12 0-1.12.24-.08.24.32.4.4.16.8.24 1.2.24 2.28-.4 1.08-.64 1.92-1.88.84-1.24 1.52-2.92t1.16-3.44q.96-3.68 1.6-7.16.64-3.48 1.2-7.32.56-3.76.92-7.52t1.24-7.6" fill="#d2d2cb" stroke-width="none" style="fill:#bc252d"/></g><g style="transform:matrix(1,0,0,1,0,0);transform-origin:58.411324px 36.894824px;animation:1s linear -.141429s infinite forwards bounce-3c330417-32e6-452f-bc30-b486e5f258a7"><path d="M209.21 128.77q-.16-.16-.44-.12-.28.04-.36.04-1.36.24-2.68-.08t-2.68-.88q-1.52-.64-2.8-1.56-1.28-.92-2.88-1.96-.16-.16-.48-.32-.32-.16-.32 0-.08.08.12.4t.36.48q1.04 1.36 2.2 2.56 1.16 1.2 3 1.92 1.2.48 2.48.64 1.28.16 2.36.04 1.08-.12 1.72-.44.64-.32.4-.72" fill="#d2d2cb" stroke-width="none" style="fill:#d2d2cb"/></g><g style="transform:matrix(1,0,0,1,0,0);transform-origin:91.190025px 17.449108px;animation:1s linear -.125714s infinite forwards bounce-3c330417-32e6-452f-bc30-b486e5f258a7"><path d="M234.17 112.93q-.4 0-1.24-.12t-.84-.76q0-.24.72-.6t1.6-1q.88-.64 1.6-1.72.72-1.08.72-2.76 0-2.08-.8-3.12-.16-.24-.4-.52-.24-.28-.16-.36.16 0 .36.12.2.12.28.2 1.6.88 2.44 2.28.84 1.4.84 2.68 0 2.56-1.2 4.12t-3.92 1.56" fill="#d2d2cb" stroke-width="none" style="fill:#4d695d"/></g><g style="transform:matrix(1,0,0,1,0,0);transform-origin:88.150017px 15.660178px;animation:1s linear -.11s infinite forwards bounce-3c330417-32e6-452f-bc30-b486e5f258a7"><path d="M231.21 109.81q-.96.4-.96-.48 0-.64.48-1.24t.92-1.32q.44-.72.6-1.64.16-.92-.48-2.28-.16-.4-.56-.88t-.24-.56q.16-.08.68.12t.68.28q1.36.64 2.04 1.92.68 1.28.68 2.24 0 1.52-1.24 2.52t-2.6 1.32" fill="#d2d2cb" stroke-width="none" style="fill:#83a79d"/></g><g style="transform:matrix(1,0,0,1,0,0);transform-origin:85.350021px 15.449107px;animation:1s linear -.094286s infinite forwards bounce-3c330417-32e6-452f-bc30-b486e5f258a7"><path d="M228.89 105.49q0-.4.24-.92t.8-.52q.4 0 .64.52t.24.92q0 .32-.24.84t-.64.52q-.56 0-.8-.48t-.24-.88" fill="#d2d2cb" stroke-width="none" style="fill:#dae8e5"/></g><g style="transform:matrix(1,0,0,1,0,0);transform-origin:111.350014px 17.449108px;animation:1s linear -.078571s infinite forwards bounce-3c330417-32e6-452f-bc30-b486e5f258a7"><path d="M254.33 112.93q-.4 0-1.24-.12t-.84-.76q0-.24.72-.6t1.6-1q.88-.64 1.6-1.72.72-1.08.72-2.76 0-2.08-.8-3.12-.16-.24-.4-.52-.24-.28-.16-.36.16 0 .36.12.2.12.28.2 1.6.88 2.44 2.28.84 1.4.84 2.68 0 2.56-1.2 4.12t-3.92 1.56" fill="#d2d2cb" stroke-width="none" style="fill:#30b0e0"/></g><g style="transform:matrix(1,0,0,1,0,0);transform-origin:108.31002px 15.660178px;animation:1s linear -.062857s infinite forwards bounce-3c330417-32e6-452f-bc30-b486e5f258a7"><path d="M251.37 109.81q-.96.4-.96-.48 0-.64.48-1.24t.92-1.32q.44-.72.6-1.64.16-.92-.48-2.28-.16-.4-.56-.88t-.24-.56q.16-.08.68.12t.68.28q1.36.64 2.04 1.92.68 1.28.68 2.24 0 1.52-1.24 2.52t-2.6 1.32" fill="#d2d2cb" stroke-width="none" style="fill:#a1cde5"/></g><g style="transform:matrix(1,0,0,1,0,0);transform-origin:105.510017px 15.449107px;animation:1s linear -.047143s infinite forwards bounce-3c330417-32e6-452f-bc30-b486e5f258a7"><path d="M249.05 105.49q0-.4.24-.92t.8-.52q.4 0 .64.52t.24.92q0 .32-.24.84t-.64.52q-.56 0-.8-.48t-.24-.88" fill="#d2d2cb" stroke-width="none" style="fill:#bfdeee"/></g><g style="transform:matrix(1,0,0,1,0,0);transform-origin:131.510017px 17.449108px;animation:1s linear -.031429s infinite forwards bounce-3c330417-32e6-452f-bc30-b486e5f258a7"><path d="M274.49 112.93q-.4 0-1.24-.12t-.84-.76q0-.24.72-.6t1.6-1q.88-.64 1.6-1.72.72-1.08.72-2.76 0-2.08-.8-3.12-.16-.24-.4-.52-.24-.28-.16-.36.16 0 .36.12.2.12.28.2 1.6.88 2.44 2.28.84 1.4.84 2.68 0 2.56-1.2 4.12t-3.92 1.56" fill="#d2d2cb" stroke-width="none" style="fill:#bc252d"/></g><g style="transform:matrix(1,0,0,1,0,0);transform-origin:128.470024px 15.660178px;animation:1s linear -.015714s infinite forwards bounce-3c330417-32e6-452f-bc30-b486e5f258a7"><path d="M271.53 109.81q-.96.4-.96-.48 0-.64.48-1.24t.92-1.32q.44-.72.6-1.64.16-.92-.48-2.28-.16-.4-.56-.88t-.24-.56q.16-.08.68.12t.68.28q1.36.64 2.04 1.92.68 1.28.68 2.24 0 1.52-1.24 2.52t-2.6 1.32" fill="#d2d2cb" stroke-width="none" style="fill:#d2d2cb"/></g><g style="transform:matrix(1,0,0,1,0,0);transform-origin:125.670029px 15.449107px;animation:1s linear infinite forwards bounce-3c330417-32e6-452f-bc30-b486e5f258a7"><path d="M269.21 105.49q0-.4.24-.92t.8-.52q.4 0 .64.52t.24.92q0 .32-.24.84t-.64.52q-.56 0-.8-.48t-.24-.88" fill="#d2d2cb" stroke-width="none" style="fill:#4d695d"/></g></g><style id="bounce-3c330417-32e6-452f-bc30-b486e5f258a7">@keyframes bounce-3c330417-32e6-452f-bc30-b486e5f258a7{0%{animation-timing-function:cubic-bezier(.1361,.2514,.2175,.8786);transform:translate(0,0) scaleY(1)}37%{animation-timing-function:cubic-bezier(.7674,.1844,.8382,.7157);transform:translate(0,-39.96px) scaleY(1)}72%{animation-timing-function:cubic-bezier(.1118,.2149,.2172,.941);transform:translate(0,0) scaleY(1)}87%{animation-timing-function:cubic-bezier(.7494,.2259,.8209,.6963);transform:translate(0,19.900000000000002px) scaleY(.602)}}</style></svg>